<svg xmlns="http://www.w3.org/2000/svg" viewBox="0 0 530.02 373.66" id="students-learning-maths-equation-in-classroom">
  <g style="isolation:isolate">
    <g id="Layer_1">
      <g>
        <path d="M100.27,332.74c-65.51-4.69-109.81-59.31-98.51-110.17,10.25-46.15,64.33-80.41,122.78-71.64-34.33-9.12-49.82-42.79-37.3-66.76,11.94-22.87,47.96-34.19,77.64-19.27,47.77-43.49,109.85-56.25,149.83-35.28,8.13,4.26,24.43,14.68,35.79,38.54,12.31-3.07,51.13-11.22,92.87,5.39,0,0,38.51,15.32,62.44,51.19,35.48,53.18,18.58,135.44-40.63,207.86-121.64.05-243.27.1-364.91.14Z" style="fill:#fedc8e"></path>
        <path d="M7.3,330.28c-.14,2.42,10.12,7.05,22.21,10.23,12.86,3.38,29.01,6.53,41.95,8.87-4.46,2.16-8.46,4.46-11.29,6.81-2.7,2.24-4.28,6.05-4.22,7.09.77,14.83,428.31,14.14,428.69-4.45.06-2.72-9.01-5.45-23.78-8.11,44.8-4.29,64.36-8.05,64.31-11.35-.26-16.94-516.88-25.84-517.87-9.09Z" style="fill:#8595a1"></path>
        <path d="M136.98,12.09C268,8.06,399.01,4.03,530.02,0c-4.98,76.2-9.95,152.39-14.93,228.59H155.21c-6.08-72.17-12.15-144.33-18.23-216.5Z" style="fill:#3d2121"></path>
        <path d="M154.12,20.56c119.22-3.49,238.44-6.99,357.66-10.48-3.87,69.07-7.74,138.15-11.61,207.22H170.15c-5.34-65.58-10.69-131.16-16.03-196.74Z" style="fill:#396555"></path>
        <g>
          <path d="M332.72,180.15c-7.09,1.5-14.24,2.97-21.45,4.43-9.25,1.86-18.43,3.66-27.52,5.38,5.41,29.4,10.83,58.79,16.25,88.19-2.4,1.32-4.8,2.64-7.21,3.96-7.93-31.82-15.85-63.65-23.78-95.47,21.5-5.16,42.99-10.33,64.49-15.49-.26,3-.52,6.01-.78,9.01Z" style="fill:#c33c25"></path>
          <path d="M297.89,172.59c5.28,29.6,10.57,59.19,15.85,88.79,3.6-.59,7.21-1.17,10.81-1.76-4.92-29.36-9.85-58.72-14.77-88.09-3.96.35-7.93.7-11.89,1.06Z" style="fill:#c33c25"></path>
          <path d="M387.21,131.52c13.46,11.34,26.92,22.67,40.38,34.01,6.72,3.99,14.1,8.01,22.16,11.89,5.2,2.5,10.25,4.74,15.13,6.76,1.17-.44,2.88-1.01,4.99-1.48,3.59-.8,5.39-1.21,6.85-.63,3.25,1.29,4.09,5.67,4.8,9.42.45,2.36.21,3.34-.39,3.94-.93.92-2.52.68-3.01.58h-21.08c-12.61-5.3-25.22-10.59-37.83-15.89-11.35-8.74-22.7-17.47-34.05-26.21.68-7.46,1.36-14.92,2.04-22.39Z" style="fill:#be5b55"></path>
          <path d="M386.72,130.22c2.83.45,7.15,1.45,11.72,4.02,6.65,3.74,9.14,8.16,17.83,16.93,2.5,2.52,5.94,5.84,10.27,9.55,4.65,1.11,10.93,3.13,17.65,7.03,8.68,5.02,14.46,11.06,17.9,15.27-.97,1.95-2.01,3.94-3.13,5.99-1.21,2.21-2.43,4.3-3.64,6.29-9.62-2.28-22.87-6.55-37.07-14.94-11.85-7-20.75-14.74-27.02-21.08-1.5-9.69-3.01-19.37-4.51-29.06Z" style="fill:#c75578"></path>
          <path d="M351.93,128.99c-7.38,2.11-14.77,4.22-22.15,6.33.16,5.28-.1,13.4-2.59,22.8-2.79,10.52-6.71,16.31-11.48,26.19-3.55,7.36-8.26,18.4-12.2,33.01,13.38-.29,28.02-1.38,43.65-3.71,6.56-.98,12.86-2.11,18.9-3.35,3.91-7.33,7.81-14.67,11.72-22.01,3.4-4.26,9.13-12.63,11.66-24.67,3.27-15.58-.74-28.19-2.71-33.37-11.6-.41-23.19-.82-34.79-1.23Z" style="fill:#ebf38f"></path>
          <path d="M333.76,134.18c10.48,10.26,20.96,20.52,31.45,30.77,4.44-4.66,9.63-10.99,14.32-19.18,3.21-5.61,5.52-10.92,7.2-15.55,16.02,21.71,16.7,29.8,14.15,33.11-1.48,1.91-3.25,1.21-6.49,3.51-7.06,5.03-6.57,14.07-9.46,22.97-1.84,5.66-5.75,13.47-15.13,21.62-10.23.61-25.92,3-42.42,11.89-6.67,3.59-12.19,7.56-16.66,11.3-2.45-2.14-7.21-6.94-9.28-14.54-4.13-15.18,6.23-27.67,7.3-28.91,8.34-18.99,16.69-37.99,25.03-56.98Z" style="fill:#c75578"></path>
          <path d="M357.81,58.46c-16.8,2.91-24.57,20.32-26.38,24.34-7.85,17.42-2.16,33.71-.81,37.29,5.79,1.65,12.14,3.18,19.01,4.41,12.05,2.17,23.06,2.97,32.61,3.06,1.14-2.1,2.28-4.2,3.42-6.3,1.76,1.53,3.52,3.06,5.28,4.59,1.38-.39,2.8-.84,4.27-1.35,3.79-1.33,7.16-2.86,10.09-4.41-2.16-2.58-5.05-6.64-6.84-12.16-3.3-10.16.2-15.71-.9-22.88-2.17-14.11-21.45-29.77-39.73-26.6Z" style="fill:#22132b"></path>
          <path d="M339.12,92.89c-.14-3.4-.04-12.75,6.39-20.42,8.53-10.18,24.74-13.25,39.81-6.79-.89-1.6-2.26-3.52-4.37-5.13-9.86-7.55-29.6-3.48-39.07,8.84-6.43,8.38-6.27,18.16-5.97,22.08,1.07.47,2.13.95,3.2,1.43Z" style="fill:#ebf38f"></path>
          <path d="M316.87,250.15c-11.76.51-22.29,2.05-31.34,3.96,1.68,5.04,3.36,10.09,5.04,15.13,24.98.36,49.96.72,74.94,1.08,1.44-5.04,2.88-10.09,4.32-15.13-13.69-3.24-31.78-5.96-52.96-5.04Z" style="fill:#c33c25"></path>
          <path d="M290.63 264.58c-2.04 24.22-4.08 48.44-6.12 72.66 3.72-.33 7.45-.66 11.17-1 3.36-23.79 6.72-47.57 10.08-71.36-5.04-.1-10.08-.2-15.12-.3ZM365.57 266.19c2.64 22.31 5.28 44.62 7.93 66.93-4.8.17-9.61.34-14.41.51-4.2-22.61-8.4-45.22-12.6-67.83 6.36.13 12.72.26 19.08.39Z" style="fill:#c33c25"></path>
          <path d="M350.28 344.25c-2.58-5.5 2.14-15.19 7.74-15.99 3.54-.51 6.68 2.65 10.31 6.3 3.03 3.04 8.14 8.19 6.82 11.36-2.12 5.06-21.12 6.34-24.88-1.67ZM375.24 125.78c.25 1.63.5 3.27.75 4.91-.48.83-3.38 5.65-8.94 6.67-5.85 1.07-12.25-2.49-15.21-8.93.61-4.38 1.23-8.77 1.84-13.15 7.19 3.5 14.37 7 21.56 10.5Z" style="fill:#be5b55"></path>
          <g style="mix-blend-mode:multiply;opacity:.46">
            <path d="M353.11,119.32c.17,1.31,1.33,9.17,7.87,12.91,1.59.91,5.4,3.08,9.3,1.39,3.87-1.68,4.99-5.92,5.15-6.57-.25-1.43-.51-2.86-.76-4.29-7.05-2.15-14.09-4.31-21.14-6.46-.14,1.01-.28,2.02-.42,3.03Z" style="fill:#bd5b53"></path>
          </g>
          <path d="M382.58,69.02c1.47.55,3.64,1.39,5.63,3.42,1,1.02,5.14,5.57,3.47,20.24-1.23,10.77-2.92,25.66-13.98,31.04-1.19.58-5.2,2.37-10.36,1.72-8.32-1.05-15.53-7.95-18.95-17.77-.64.26-1.6.55-2.76.62-5.45.3-11.02-4.73-12.45-10.48-.11-.43-1.56-6.67,1.24-8.58,2.64-1.8,8.45.63,14.04,6.78-.88-3.5-1.76-9.73,1.19-15.79,5.85-11.99,22.73-15.04,32.94-11.2Z" style="fill:#fd8c83"></path>
          <path d="M377.12,69.95c-.77-1.62-3.12-5.96-8.05-7.94-.68-.27-1.32-.47-1.95-.61,0,0-2.05-.49-4.42-.33-1.36.09-7.98.87-14.72,6.38-2.64,2.16-6.24,5.1-7.84,10.03-1.16,3.56-1.15,7.21-1.15,7.21,0,2.43.41,3.03.21,5.22-.32,3.62-1.54,4.63-1.61,6.32-.08,1.93,2.1,4.58,11.2,8.04-.36-3.37-.56-10.05,2.93-17.03,7.22-14.44,23.64-17.02,25.4-17.27Z" style="fill:#22132b"></path>
          <path d="M369.94,62.82c1.66-.65,4.92-1.64,8.9-1,8.09,1.31,12.04,8.26,12.59,9.3,2.88,5.39,2.24,10.71,1.86,12.81-5.18-4.63-10.36-9.27-15.54-13.9-2.6-2.4-5.21-4.8-7.81-7.21Z" style="fill:#22132b"></path>
          <path d="M382.27,69.61c1.48.52,3.67,1.3,5.71,3.28,1.02.99,5.27,5.44,3.96,20.15-.96,10.8-2.29,25.72-13.21,31.38-1.17.61-5.14,2.5-10.31,1.97-8.34-.85-15.72-7.56-19.38-17.3-.64.27-1.58.59-2.75.69-5.44.44-11.13-4.46-12.71-10.17-.12-.43-1.73-6.63,1.03-8.61,2.59-1.86,8.47.43,14.2,6.43-.96-3.48-2-9.69.8-15.82,5.55-12.13,22.35-15.59,32.65-12.01Z" style="fill:#be5b55"></path>
          <g style="mix-blend-mode:multiply;opacity:.46">
            <path d="M349.38,101.15c.25-.29-2.5-3.81-7.15-6.38-2.21-1.23-5.81-3.22-7.36-1.93-2.14,1.77.91,8.69,1.13,8.64.18-.04-1.09-5.2-.2-5.52.64-.23,1.42,2.42,3.76,2.99,1.32.32,1.83-.34,3.43-.43,3.61-.2,6.16,2.91,6.39,2.64Z" style="fill:#bd5b53"></path>
          </g>
          <g style="mix-blend-mode:multiply;opacity:.37">
            <path d="M348.4,101.6c.17-.73-1.64-2.02-3.5-2.36-1.29-.24-3.64-.21-4.22.96-1.09,2.19,4.7,7.19,5.34,6.72.39-.29-1.39-2.46-.49-3.86.75-1.17,2.71-.73,2.87-1.46Z" style="fill:#bd5b53"></path>
          </g>
          <g style="mix-blend-mode:multiply;opacity:.46">
            <path d="M380.32,106.63c1.78-.17,2.15-.52,2.31-.78.8-1.28-.71-4.45-3.1-5.17-2.22-.67-4.29,1.05-5.22,1.83-.95.79-1.91,1.59-1.76,2.4.31,1.64,4.95,1.99,7.77,1.72Z" style="fill:#bd5b53"></path>
          </g>
          <g style="mix-blend-mode:multiply;opacity:.46">
            <path d="M378.68,99.01c1.58.26,2.42,1.68,3.68,3.84.29.5.59,1.09.36,1.48-.25.42-.88.17-1.88.55-1.14.44-1.16,1.11-1.78,1.11-.93,0-1.05-1.47-2.44-2.24-1.5-.82-2.83.08-3.13-.44-.49-.85,2.27-4.78,5.19-4.3Z" style="fill:#bd5b53"></path>
          </g>
          <g style="opacity:.11;mix-blend-mode:multiply">
            <path d="M381.19,95.75c-1.62-.52-2.94-.38-4.71-.18-5.03.55-6.53,2.8-9.75,3.67-7.19,1.95-12.52-5.81-15.32-3.71-2.33,1.75-1.51,9.31,2.91,12.4,4.66,3.25,11.23.11,12.07-.31,6.34-3.15,7.31-9.33,12.16-9.31.06,0,.16,0,.28,0,0,0,1.96.09,3.74,1.37,2.83,2.05.95,8.11,3.89,9.7.7.38,1.58.45,2.27.17,1.51-.62,1.82-2.85,2.27-6.43.34-2.74.54-4.47-.33-5-.81-.49-1.53.75-3.29.73-2.48-.02-3.24-2.15-6.19-3.1Z" style="fill:#bd5b53"></path>
          </g>
          <path d="M368.57 100.33c0 .13.16.23.34.22.18 0 .32-.12.32-.25 0-.13-.16-.23-.34-.22-.18 0-.32.12-.32.25ZM364.83 101.47c0 .13.16.23.34.22.18 0 .32-.12.32-.25 0-.13-.16-.23-.34-.22-.18 0-.32.12-.32.25ZM366.83 103.18c0 .13.16.23.34.22.18 0 .32-.12.32-.25 0-.13-.16-.23-.34-.22-.18 0-.32.12-.32.25ZM362.57 102.8c0 .13.16.23.34.22.18 0 .32-.12.32-.25 0-.13-.16-.23-.34-.22-.18 0-.32.12-.32.25ZM361.67 100.59c0 .13.16.23.34.22.18 0 .32-.12.32-.25 0-.13-.16-.23-.34-.22-.18 0-.32.12-.32.25ZM358.54 100.97c0 .13.16.23.34.22.18 0 .32-.12.32-.25 0-.13-.16-.23-.34-.22-.18 0-.32.12-.32.25ZM355.34 99.76c0 .13.16.23.34.22.18 0 .32-.12.32-.25 0-.13-.16-.23-.34-.22-.18 0-.32.12-.32.25Z" style="fill:#852d2b"></path>
          <path d="M471.52,188.66c-.27,0-.55-.04-.86-.14-.85-.28-1.6-.89-2.21-1.81-.11-.16-.06-.38.1-.49.16-.11.38-.06.49.1.52.78,1.14,1.3,1.84,1.53.6.2,1.01.1,1.75-.08.54-.13,1.21-.29,2.2-.39.84-.09,1.49-.1,1.95-.1.74,0,.98-.02,1.14-.22.16-.21.42-.89-.66-2.86-.09-.17-.03-.38.14-.48.17-.09.38-.03.48.14.94,1.71,1.14,2.93.6,3.63-.37.48-.9.48-1.69.49-.48,0-1.08,0-1.88.1-.94.1-1.59.25-2.11.38-.47.11-.86.2-1.27.2Z" style="fill:#3d2121"></path>
          <path d="M356.49 102.65c0 .13.16.23.34.22.18 0 .32-.12.32-.25 0-.13-.16-.23-.34-.22-.18 0-.32.12-.32.25ZM352.98 100.54c0 .13.16.23.34.22s.32-.12.32-.25c0-.13-.16-.23-.34-.22-.18 0-.32.12-.32.25ZM353.49 97.53c0 .13.16.23.34.22.18 0 .32-.12.32-.25 0-.13-.16-.23-.34-.22-.18 0-.32.12-.32.25ZM372.52 99.48c0 .13.16.23.34.22.18 0 .32-.12.32-.25 0-.13-.16-.23-.34-.22-.18 0-.32.12-.32.25ZM380.63 98.07c0 .13.16.23.34.22.18 0 .32-.12.32-.25 0-.13-.16-.23-.34-.22-.18 0-.32.12-.32.25ZM377.73 96.53c0 .13.16.23.34.22.18 0 .32-.12.32-.25 0-.13-.16-.23-.34-.22-.18 0-.32.12-.32.25ZM376.1 97.56c0 .13.16.23.34.22.18 0 .32-.12.32-.25 0-.13-.16-.23-.34-.22-.18 0-.32.12-.32.25ZM373.89 97.33c0 .13.16.23.34.22.18 0 .32-.12.32-.25 0-.13-.16-.23-.34-.22-.18 0-.32.12-.32.25ZM384.12 99.4c0 .13.16.23.34.22.18 0 .32-.12.32-.25 0-.13-.16-.23-.34-.22-.18 0-.32.12-.32.25ZM385 101.73c0 .13.16.23.34.22.18 0 .32-.12.32-.25s-.16-.23-.34-.22c-.18 0-.32.12-.32.25ZM386.56 100.45c0 .13.16.23.34.22.18 0 .32-.12.32-.25 0-.13-.16-.23-.34-.22-.18 0-.32.12-.32.25ZM388.03 102.88c0 .13.16.23.34.22.18 0 .32-.12.32-.25 0-.13-.16-.23-.34-.22-.18 0-.32.12-.32.25ZM386.61 104.33c0 .13.16.23.34.22.18 0 .32-.12.32-.25 0-.13-.16-.23-.34-.22-.18 0-.32.12-.32.25ZM389.3 100.7c0 .13.16.23.34.22.18 0 .32-.12.32-.25 0-.13-.16-.23-.34-.22-.18 0-.32.12-.32.25Z" style="fill:#852d2b"></path>
          <path d="M478.11,196.01c-1.58-2.64-3.16-5.27-4.73-7.91-6.57-.99-15.24-1.55-25.22-.18-5.22.72-9.87,1.83-13.87,3.06-6.03-2.26-13.81-4.59-23.06-5.95-9.48-1.39-17.79-1.37-24.32-.9-1.16,3.96-2.32,7.92-3.48,11.87h94.68Z" style="fill:#dee5ef"></path>
          <path d="M382.95,191.58c17.21,1.04,34.43,2.08,51.64,3.12,14.41-.44,28.82-.88,43.23-1.32.36.88.72,1.75,1.08,2.63h-97.24c.43-1.48.86-2.95,1.28-4.43Z" style="fill:#c33c25"></path>
          <path d="M370.12,95.96c-.4,1.68-1.77,2.69-3.05,2.25-1.28-.44-2-2.15-1.6-3.84.4-1.68,1.77-2.69,3.05-2.25,1.28.44,2,2.15,1.6,3.83Z" style="fill:#852d2b"></path>
          <path d="M369.67,95.82c-.32,1.36-1.43,2.17-2.47,1.82-1.04-.35-1.62-1.74-1.29-3.1.32-1.36,1.43-2.17,2.47-1.82s1.62,1.74,1.29,3.1Z" style="fill:#25172f"></path>
          <path d="M369.99,94.19c-.36.35-.79.41-.95.14-.16-.27,0-.78.36-1.13s.79-.41.95-.14c.16.27,0,.78-.36,1.13Z" style="fill:#f3f1f3"></path>
          <g style="opacity:.06">
            <path d="M367.39,92.09c.94,1.09,1.88,2.18,2.82,3.27-1.59-.27-3.19-.55-4.78-.82.07-.38.36-1.58,1.4-2.2.19-.11.38-.19.56-.24Z" style="fill:#f3f1f3"></path>
          </g>
          <path d="M388.59,97.78c-.4,1.68-1.77,2.69-3.05,2.25-1.28-.44-2-2.15-1.6-3.84.4-1.68,1.77-2.69,3.05-2.25,1.28.44,2,2.15,1.6,3.83Z" style="fill:#852d2b"></path>
          <path d="M388.14,97.64c-.32,1.36-1.43,2.17-2.47,1.82-1.04-.35-1.62-1.74-1.29-3.1s1.43-2.17,2.47-1.82c1.04.35,1.62,1.74,1.29,3.1Z" style="fill:#25172f"></path>
          <path d="M388.47,96.01c-.36.35-.79.41-.95.14-.16-.27,0-.78.36-1.13s.79-.41.95-.14c.16.27,0,.78-.36,1.13Z" style="fill:#f3f1f3"></path>
          <g style="opacity:.06">
            <path d="M385.86,93.91c.94,1.09,1.88,2.18,2.82,3.27-1.59-.27-3.19-.55-4.78-.82.07-.37.36-1.58,1.4-2.2.19-.11.38-.19.56-.24Z" style="fill:#f3f1f3"></path>
          </g>
          <path d="M314.09,175.16c8.97.38,19.19,1.34,30.33,3.32,11.56,2.05,21.82,4.8,30.62,7.65,4.54-1.91,9.09-3.83,13.63-5.74,5.31.39,8.01,1.07,8.12,2.04.03.25-.11.51-.42.8-.67.29-1.57.59-2.65.76-1.52.23-2.8.11-3.68-.05,2.08.62,4.15,1.23,6.23,1.85,2.27-.87,4.13-.87,5.19-.78,1.34.12,2.61.27,3.4,1.27.56.71.59,1.62.54,2.27.13.15.74.9.66,1.97-.06.73-.41,1.24-.57,1.44.09.35.22,1.09-.03,1.97-.35,1.22-1.21,1.88-1.49,2.07h-95.32c-4.54-1.79-7.61-5.79-7.65-9.91-.06-5.67,5.62-11.29,13.1-10.94Z" style="fill:#be5b55"></path>
          <path d="M321.22,181.83c2.03-4.25,17.71-37.37,13.15-43.98-1.25-1.82-2.93-2.52-2.93-2.52-3.83-1.6-8.41,1.42-10.34,2.7-10.61,7-19.51,45.52-20.09,48.08,6.74-1.42,13.48-2.85,20.22-4.27Z" style="fill:#be5b55"></path>
          <path d="M337.05 142.69c-.38-3.75-2.02-6.67-3.29-8.51-3.71-.39-8.88-.29-13.36 2.65-4.03 2.64-5.21 5.94-8.85 12.44-5.92 10.55-7.58 8.9-12.2 17.46-3.86 7.15-9.84 18.23-5.26 24.88.73 1.05 3.82 5.04 13.39 5.12h66.73c.7-.75 2.56-2.92 3.03-6.31.41-2.99-.47-5.32-.9-6.28-2.09-.42-4.19-.84-6.28-1.26-1.37-1.08-3.69-2.7-6.85-3.95-7.46-2.96-12.98-.86-23.44-1.67-5.85-.46-10.59-1.16-13.63-1.67 1.84-6.85 3.92-12.17 5.5-15.79 3.29-7.54 6-11.39 5.42-17.09ZM367.66 333.91c4.09-2.98 10.03 2.19 26.06 9.04 12.42 5.31 18.62 6.38 20.73 12.27.97 2.7.68 5.33.25 7.19-9.61 1.63-21.74 2.84-35.71 2.26-12.9-.54-24.08-2.46-33.06-4.63-.48-3.16-.76-7.26-.23-11.96.3-2.58.79-4.89 1.34-6.89 1.21-.35 3.08-.67 4.87.12 2.68 1.19 2.59 3.76 5.41 5.12 2.09 1 5 .98 6.09-.38.94-1.17-.07-2.58.11-4.96.27-3.53 2.91-6.29 4.12-7.18Z" style="fill:#c75578"></path>
          <path d="M351.2,344.88c.66-1.31.74-2.62.68-3.59-1.77-.78-3.63-.45-4.83-.11-.55,2-1.04,4.31-1.34,6.89-.03.24-.05.48-.08.72,2.49-.49,4.55-1.9,5.57-3.92Z" style="fill:#932b4c"></path>
          <path d="M345.94,360.04c8.98,2.17,20.15,4.09,33.06,4.63,13.96.58,26.09-.63,35.71-2.26.43-1.86.72-4.49-.25-7.19-1.66-4.64-5.87-6.29-13.65-9.38-.11.53-.22,1.05-.33,1.58,6.76,3.47,7.75,5.55,7.54,6.77-.84,5.11-24.2,5.46-35.7,5-11.06-.43-20.27-1.97-26.81-3.38.09,1.54.25,2.96.44,4.22Z" style="fill:#1d0c0c"></path>
          <path d="M397.03,348.98c1.11-.3,2.9-.96,4.91-2.69-2.37-.94-5.1-2.01-8.22-3.35-16.03-6.85-21.97-12.02-26.06-9.04-1.05.76-3.16,2.93-3.89,5.78.46-.55,1.21-1.26,2.28-1.57,2.77-.8,5.7,1.66,7.02,2.71,5.66,4.48,16.34,10.2,23.96,8.15Z" style="fill:#932b4c"></path>
          <path d="M367.15,351.62s-.03,0-.04,0c-.33-.02-.59-.31-.57-.65.08-1.2-.06-2.35-.42-3.44-.21-.63-.44-1.08-.65-1.48-.28-.55-.55-1.07-.62-1.81-.13-1.41.53-2.89,1.97-4.42.23-.24.61-.26.86-.03.25.23.26.61.03.86-1.19,1.26-1.74,2.43-1.64,3.48.05.51.23.87.49,1.37.21.42.48.93.72,1.66.41,1.23.57,2.54.48,3.9-.02.32-.29.57-.61.57Z" style="fill:#1d0c0c"></path>
          <path d="M366.92 354.56s-.02 0-.03 0c-.21-.02-.37-.2-.36-.41l.23-3.16c.01-.21.2-.37.41-.36.21.02.37.2.36.41l-.22 3.16c-.02.2-.18.36-.39.36ZM394.87 349.96c-.11 0-.23-.03-.33-.1-1.28-.82-2.95-2.16-4.28-4.17-2.2.34-4.35.98-6.38 1.92-.16.07-.34.07-.5 0-.16-.07-.28-.21-.33-.38-.4-1.33-.73-2.69-1-4.05-.05-.25-.1-.5-.14-.75-.21.04-.42.09-.63.14-1.54.35-3.09.78-4.6 1.26-.16.05-.34.04-.48-.05-.15-.08-.25-.22-.29-.38-.29-1.16-.55-2.34-.77-3.51-.1-.51-.19-1.02-.28-1.53 0 0 0 0 0 0-1.5.24-3.01.58-4.47 1.04-.32.1-.66-.08-.76-.4-.1-.32.08-.66.4-.76 1.51-.47 3.08-.83 4.64-1.08 0 0 0 0 0 0-.13-.87-.25-1.75-.35-2.62-.04-.33.2-.63.53-.67.34-.04.64.2.67.53.1.86.22 1.73.35 2.59 2.02-.24 4.06-.29 6.1-.15.3.02.54.26.56.57.08 1.19.2 2.38.38 3.57 1.96-.37 3.95-.64 5.94-.8.31-.02.58.18.64.49.2.99.52 1.95.95 2.85.14.3.29.59.45.86 3.39-.4 6.78-.11 10.09.86.25.08.43.31.43.57 0 .27-.16.5-.41.59-1.02.34-2 .79-2.92 1.33-1 .58-1.93 1.28-2.78 2.06-.12.11-.26.16-.41.16ZM391.63 345.53c1.02 1.38 2.19 2.37 3.18 3.05.82-.71 1.7-1.35 2.64-1.9.45-.26.91-.5 1.39-.72-2.38-.51-4.79-.66-7.21-.43ZM383.1 342.2c.05.25.09.51.14.76.22 1.1.48 2.19.78 3.27 1.8-.77 3.67-1.32 5.58-1.65-.09-.17-.18-.35-.26-.53-.39-.83-.7-1.7-.92-2.6-1.78.16-3.56.41-5.31.75ZM376.05 338.21c.08.49.17.98.27 1.46.18.94.39 1.88.61 2.82 1.34-.42 2.71-.78 4.08-1.09.23-.05.47-.1.7-.15-.16-1.06-.28-2.13-.36-3.2-1.77-.09-3.54-.04-5.29.17Z" style="fill:#1d0c0c"></path>
          <path d="M430.65,308.6c-8.2-3.09-11.46-2.2-12.91-.75-1.88,1.9-.88,4.8-3.53,7.17-1.41,1.26-3.91,1.94-5.89,1.18-3.2-1.24-3.37-5.76-5.03-5.67-1.26.07-2.08,2.73-2.46,3.96-.97,3.14-.66,5.93-.32,7.6,6.96,5.65,13.43,9.01,18.09,11.02,11.54,5,29,9.13,37.25,2.71,2.16-1.68,2.57-3.22,2.68-3.89.87-5.3-7.97-10.22-8.53-10.52-6.45-4.27-12.9-8.54-19.34-12.81Z" style="fill:#c75578"></path>
          <path d="M416.37,310.17c-.08,1.4,1.35,2.22,5.86,5.39,10.19,7.14,11.26,8.79,14.88,8.99,3.57.19,7.73-1.13,8.04-2.99.27-1.63-2.58-2.59-7.61-6.54-7.5-5.89-7.81-8.99-11.88-9.53-4.28-.57-9.15,2.17-9.29,4.67Z" style="fill:#932b4c"></path>
          <path d="M440.96,324.22c1.23.64,2.98,1.72,4.69,3.47,1.4,1.43,4.15,4.26,3.57,6.14-1,3.21-11.44,2.52-12.84,2.43-10.92-.72-19.58-5.14-26.69-8.85-4.02-2.1-7.18-4.04-9.17-5.32.08,1.25.17,2.5.25,3.75,9.35,6.7,17.95,10.52,24.04,12.74,9.3,3.39,16.98,6.07,25.47,3.21,3.95-1.33,6.83-3.44,8.67-5.03.29-.88.95-3.22.11-5.99-.6-1.97-1.68-3.28-2.32-3.94-.03.96-.19,2.74-1.21,3.19-.89.39-2.04-.39-4.71-2.57-1.55-1.27-3.61-3-5.99-5.16-1.29.65-2.58,1.29-3.87,1.94Z" style="fill:#1d0c0c"></path>
          <path d="M416,325.02s-.08,0-.11-.01c-.31-.06-.51-.37-.45-.68.22-1.12.24-2.22.04-3.28-.12-.62-.28-1.07-.42-1.47-.2-.55-.38-1.07-.35-1.78.06-1.34.87-2.65,2.41-3.9.25-.2.61-.16.81.08.2.25.16.61-.08.81-1.27,1.03-1.94,2.06-1.98,3.06-.02.48.11.84.29,1.34.15.42.33.94.47,1.65.23,1.21.21,2.46-.04,3.72-.05.27-.29.46-.56.46Z" style="fill:#1d0c0c"></path>
          <path d="M415.39 327.75s-.05 0-.08 0c-.2-.04-.33-.24-.28-.43l.61-2.94c.04-.2.23-.33.43-.28.2.04.33.24.28.43l-.61 2.94c-.04.17-.19.29-.36.29ZM435.98 325c-.08 0-.15-.01-.22-.04-.18-.08-.31-.24-.34-.43-.31-1.75-.3-3.52.01-5.26-.27.02-.54.04-.81.06-1.96.19-3.9.65-5.76 1.38-.22.08-.46.03-.62-.13-.16-.16-.21-.41-.12-.62l1.52-3.7c-1.5.43-2.95 1.04-4.31 1.81-.2.11-.45.09-.64-.05-.18-.14-.26-.38-.2-.61.44-1.6 1.01-3.16 1.7-4.67l-6.73 1.38c-.31.06-.62-.14-.68-.45-.06-.31.14-.62.45-.68l7.59-1.55c.05-.1.1-.2.16-.3.69-1.3 1.47-2.56 2.33-3.75.19-.26.55-.32.8-.13.26.19.32.55.13.8-.71.98-1.37 2.02-1.96 3.08l4.07-.83c.21-.04.42.03.56.2.13.16.17.39.09.58l-1.46 3.56c2-.35 4.03-.41 6.07-.17.19.02.36.14.45.31s.09.37 0 .54c-.49.88-.88 1.81-1.16 2.77 2.65.04 5.31.54 7.83 1.5.23.09.38.3.37.55 0 .24-.16.46-.39.54-1.26.43-2.5.95-3.7 1.52-1.63.78-3.21 1.69-4.7 2.72-.1.07-.21.1-.33.1ZM436.61 319.22c-.28 1.39-.34 2.8-.19 4.21 1.31-.85 2.68-1.62 4.09-2.3.75-.36 1.51-.69 2.29-1-2.02-.6-4.11-.91-6.19-.91ZM431.02 315.9l-1.35 3.29c1.57-.52 3.2-.85 4.84-1.01.39-.04.79-.06 1.18-.08.24-.89.56-1.75.95-2.58-1.89-.14-3.78-.01-5.62.38ZM427.59 312.43c-.63 1.28-1.17 2.61-1.61 3.97 1.34-.65 2.75-1.15 4.2-1.5l1.34-3.28-3.93.8Z" style="fill:#1d0c0c"></path>
          <path d="M350.98,250.16c-5.06,25.01-10.12,50.01-15.18,75.02,2.39,2.71,11.09,11.92,25.83,14.35,15.85,2.62,27.74-4.41,30.62-6.22-2.23-26.63-4.46-53.26-6.7-79.89-11.52-1.09-23.05-2.17-34.57-3.26Z" style="fill:#575a58"></path>
          <path d="M311.19,241.62c1.18.84,2.4,1.65,3.68,2.43,15.83,9.72,33.19,11.12,46.87,10.13,11.61,23.62,23.22,47.23,34.83,70.85,1.74.18,22.88,2.07,34.95-13.41,5.15-6.6,6.56-13.68,7-17.7-13.98-21.02-27.73-42.19-41.26-63.5-2.77-4.37-5.53-8.74-8.29-13.12-.18-.28-.29-.46-.32-.51-8.17-1.26-24.69-2.68-43.77,3.95-16.78,5.83-27.93,15.25-33.7,20.89Z" style="fill:#575a58"></path>
          <path d="M396.57,325.39c-.13,0-.25-.07-.32-.2l-34.73-70.64c-2.01.14-4.04.23-6.05.25-1.97.02-3.97-.02-5.94-.12-.19,0-.34-.17-.33-.37,0-.19.18-.35.37-.33,1.96.1,3.94.14,5.9.12,2.07-.02,4.17-.11,6.24-.26.14-.01.28.07.34.2l34.83,70.85c.08.17.01.38-.16.47-.05.02-.1.04-.16.04Z" style="fill:#3d2121"></path>
          <path d="M361.74,254.54s-.04,0-.07,0c-.19-.04-.31-.22-.28-.41.48-2.49.54-5.02.19-7.5-.23-1.62-.65-3.23-1.24-4.77-.07-.18.02-.38.2-.45.18-.07.38.02.45.2.6,1.59,1.03,3.24,1.28,4.92.37,2.56.3,5.17-.19,7.73-.03.17-.18.29-.34.29Z" style="fill:#3d2121"></path>
          <path d="M361.74,254.54c-.15,0-.29-.1-.34-.25-.05-.19.05-.38.24-.43,1.07-.31,2.63-.99,3.97-2.49,1.37-1.53,1.88-3.19,2.07-4.31.03-.19.21-.32.4-.29.19.03.32.21.29.4-.2,1.21-.75,3.01-2.24,4.66-1.46,1.62-3.14,2.36-4.3,2.7-.03,0-.07.01-.1.01Z" style="fill:#3d2121"></path>
          <path d="M367.56,195.91s-.05,0-.07-.01c-.09-.04-.13-.15-.09-.23.94-2.11,1.62-4.33,2.04-6.6.37-2,.52-4.05.46-6.09-4-2.7-8.21-4.5-12.5-5.33-3.59-.69-6.22-.55-9.55-.38-2.24.12-4.77.25-8.07.16-4.59-.14-9.19-.7-13.67-1.68-.05-.01-.09-.04-.11-.08-.03-.04-.03-.09-.02-.14.33-1.25.7-2.53,1.08-3.78,1.96-6.42,4.16-11.48,5.02-13.36.76-1.67,1.27-2.67,1.67-3.47.57-1.12.92-1.8,1.44-3.31.87-2.53,1.47-5.18,1.77-7.86.01-.1.1-.17.2-.16.1.01.17.1.16.2-.31,2.71-.91,5.38-1.79,7.94-.53,1.54-.88,2.22-1.46,3.36-.41.8-.91,1.79-1.67,3.45-.85,1.87-3.04,6.92-5,13.31-.36,1.19-.71,2.4-1.03,3.59,4.4.95,8.91,1.49,13.42,1.63,3.29.1,5.81-.04,8.04-.16,3.35-.18,6-.32,9.63.38,4.37.85,8.65,2.67,12.71,5.43.05.03.08.09.08.14.07,2.09-.09,4.2-.46,6.26-.42,2.3-1.11,4.55-2.06,6.68-.03.07-.09.11-.16.11Z"></path>
          <path d="M316.37,182.69c-.08,0-.15-.05-.17-.13-.03-.09.03-.19.12-.22,2.74-.77,5.15-2.11,7.16-3.97.94-.87,1.78-1.84,2.51-2.91.05-.08.17-.1.25-.05.08.05.1.17.05.25-.74,1.08-1.6,2.08-2.56,2.97-2.06,1.9-4.51,3.26-7.31,4.05-.02,0-.03,0-.05,0Z"></path>
          <path d="M322.47 185.62s-.1-.02-.13-.06c-.06-.07-.06-.19.02-.25 1-.87 2.79-2.76 3.47-5.65.31-1.33.36-2.69.14-4.06-.02-.1.05-.19.15-.2.09-.01.19.05.2.15.23 1.42.18 2.83-.15 4.2-.71 2.99-2.55 4.94-3.58 5.83-.03.03-.08.04-.12.04ZM374.39 196.7s-.08-.01-.12-.04c-.07-.07-.08-.18-.01-.25.87-.97 2.39-3.04 2.8-6.02.36-2.6-.25-4.74-.85-6.1l-6.19-1.24c-.1-.02-.16-.11-.14-.21.02-.1.12-.16.21-.14l6.28 1.26c.06.01.1.05.13.1.62 1.4 1.29 3.64.91 6.38-.43 3.08-1.99 5.21-2.89 6.21-.04.04-.08.06-.13.06Z"></path>
          <path d="M392.45 184.66c-1.3 0-2.4-.31-3.16-.62-.18-.07-.27-.28-.19-.46.07-.18.28-.27.46-.19.94.38 2.44.77 4.19.46.86-.16 1.69-.46 2.46-.91.17-.1.38-.04.48.12.1.17.04.38-.12.48-.84.49-1.74.83-2.69 1-.49.09-.97.13-1.42.13ZM399.14 189.48s-.03 0-.04 0l-8.13-.96c-.19-.02-.33-.2-.31-.39.02-.19.2-.33.39-.31l8.08.95 6.23-1.03c.19-.03.37.1.4.29.03.19-.1.37-.29.4l-6.28 1.04s-.04 0-.06 0ZM399.72 192.67s-.03 0-.04 0l-8.91-1.08c-.19-.02-.33-.2-.31-.39.02-.19.2-.33.39-.31l8.88 1.07 5.74-.35c.19 0 .36.14.37.33.01.19-.14.36-.33.37l-5.77.35s-.01 0-.02 0ZM399.36 195.6s-.03 0-.05 0l-8.25-1.2c-.19-.03-.33-.21-.3-.4.03-.19.21-.32.4-.3l8.22 1.19 5.59-.28c.2-.01.36.14.37.33 0 .19-.14.36-.33.37l-5.62.28h-.02Z" style="fill:#3d2121"></path>
          <rect width="192.56" height="10.69" x="289.05" y="195.57" style="fill:#3d2121"></rect>
          <g style="mix-blend-mode:multiply;opacity:.43">
            <path d="M385.78,218.41c-3.62-.85-8.38,1.86-8.79,4.84-.79,5.75,14.36,13.83,17.04,11.3,1.46-1.38-.72-5.96-1.97-8.61-1.78-3.76-3.23-6.82-6.28-7.53Z" style="fill:#575a58"></path>
          </g>
          <rect width="11.24" height="151.22" x="296.22" y="200.91" style="fill:#3d2121"></rect>
          <path d="M374.15 89.97c.46-.51.22-1.5-.26-3.48-.45-1.85-1.21-3.32-1.33-3.27-.19.07 1.08 3.46.58 3.7-.31.15-.91-1.15-2.05-2.15-1.96-1.71-4.5-1.65-9.24-1.47-3.45.13-5.21.22-6.84 1.44-1.66 1.24-2.77 3.23-2.46 3.55.23.23 1.13-.51 2.36-1.05 1.35-.6 3.19-.98 6.98-.36 7.29 1.19 11.16 4.36 12.28 3.1ZM383.98 84.4c-.26-.02-.57 2.23-.6 2.49-.24 1.73-.36 2.6-.02 2.94.66.64 1.87-.53 4.75-.93 2.59-.36 3.96.26 4.72-.72.4-.51.46-1.24.29-1.78-.3-.93-1.33-1.32-1.85-1.51-.15-.06-.66-.24-1.71-.27-1.43-.05-2.57-.09-3.45.55-1.16.85-1.14 2.36-1.48 2.32-.47-.06-.35-3.06-.65-3.08Z" style="fill:#22132b"></path>
          <path d="M379.57,114.86c.52.7.53,1.15.45,1.43-.34,1.21-3.02,1.41-4.37,1.32-3.13-.19-5.38-2.3-6.4-3.42,3.44.22,6.89.45,10.33.67Z" style="fill:#852d2b"></path>
          <path d="M369.08,114.15c-.03.54,2.96,1.32,5.89,1.45.1,0,.2,0,.33,0,1.18.03,4.87,0,5.48-1.7.19-.55.04-1.18-.27-1.57-.95-1.2-3.89-.25-4.28-.13-.84.27-1.28.42-1.28.42-.58.2-.81.3-1.27.42-.37.1-.65.13-.98.19-.88.16-1.17.12-1.67.19-.45.06-1.95.33-1.97.71Z" style="fill:#711f2b"></path>
          <path d="M379.73,68.77c8.01,4.64,9.46,7.89,9.24,10.02-.17,1.66-1.29,2.08-1.49,4.26-.33,3.52,2.41,4.4,3.51,8.62,1.18,4.54-1.28,6.25.11,10.43.88,2.64,2.68,4.41,3.94,5.43-.51-1.41-1.1-3.63-.85-6.28.39-4.09,2.39-4.85,2.45-8.41.06-3.17-1.51-3.31-2.34-8.2-.69-4.08.34-4.33-.43-7.24-.4-1.51-2.02-6.48-6.81-8.41-3.07-1.24-5.97-.62-7.33-.23Z" style="fill:#22132b"></path>
          <path d="M369.8,211.43c1.14,1.44,2.28,2.87,3.43,4.31-9.15,1.82-20.33,4.83-32.55,9.95-12.01,5.03-21.85,10.77-29.49,15.94-.51-.7-1.2-1.87-1.31-3.39,0,0-.13-1.76.84-3.63,5.42-10.41,26.36-17.09,26.36-17.09,7.62-2.43,18.74-5.21,32.73-6.1Z" style="fill:#575a58"></path>
          <rect width="11.24" height="151.22" x="464.88" y="200.91" style="fill:#3d2121"></rect>
          <rect width="172.26" height="29.76" x="299.61" y="204.34" style="fill:#3d2121"></rect>
          <path d="M375.86,129.83l1.88-.18c-.01,1.28-.22,4.85-2.82,7.87-3.39,3.93-8.38,4.05-10.03,4.08-10.3.23-16.83-10.71-17.22-11.39,1.39-.59,2.79-1.19,4.18-1.78.28.52,4.56,8.25,12.38,8.61.9.04,6.5.29,9.83-3.73,1.03-1.25,1.54-2.55,1.81-3.47Z" style="fill:#575a58"></path>
        </g>
        <g>
          <path d="M98.68,180.15c-7.09,1.5-14.24,2.97-21.45,4.43-9.25,1.86-18.43,3.66-27.52,5.38,5.42,29.4,10.83,58.79,16.25,88.19-2.4,1.32-4.8,2.64-7.21,3.96-7.93-31.82-15.85-63.65-23.78-95.47,21.5-5.16,42.99-10.33,64.49-15.49-.26,3-.52,6.01-.78,9.01Z" style="fill:#c33c25"></path>
          <path d="M63.85,172.59c5.28,29.6,10.57,59.19,15.85,88.79,3.6-.59,7.2-1.17,10.81-1.76-4.92-29.36-9.85-58.72-14.77-88.09-3.96.35-7.93.7-11.89,1.06Z" style="fill:#c33c25"></path>
          <path d="M82.83,250.15c-11.76.51-22.29,2.05-31.34,3.96,1.68,5.04,3.36,10.09,5.04,15.13,24.98.36,49.96.72,74.94,1.08,1.44-5.04,2.88-10.09,4.32-15.13-13.69-3.24-31.78-5.96-52.96-5.04Z" style="fill:#c33c25"></path>
          <path d="M56.59 264.58c-2.04 24.22-4.08 48.44-6.12 72.66 3.72-.33 7.45-.66 11.17-1 3.36-23.79 6.72-47.57 10.07-71.36-5.04-.1-10.08-.2-15.12-.3ZM131.53 266.19c2.64 22.31 5.28 44.62 7.93 66.93-4.8.17-9.61.34-14.41.51-4.2-22.61-8.4-45.22-12.6-67.83 6.36.13 12.72.26 19.08.39Z" style="fill:#c33c25"></path>
          <path d="M116.24,344.25c-2.58-5.5,2.14-15.19,7.74-15.99,3.54-.51,6.68,2.65,10.31,6.3,3.03,3.04,8.14,8.19,6.82,11.36-2.12,5.06-21.13,6.34-24.88-1.67Z" style="fill:#be5b55"></path>
          <path d="M133.62,333.91c4.09-2.98,10.03,2.19,26.06,9.04,12.42,5.31,18.62,6.38,20.73,12.27.97,2.7.68,5.33.25,7.19-9.62,1.63-21.74,2.84-35.71,2.26-12.9-.54-24.08-2.46-33.05-4.63-.48-3.16-.76-7.26-.23-11.96.29-2.58.79-4.89,1.34-6.89,1.21-.35,3.08-.67,4.87.12,2.68,1.19,2.59,3.76,5.41,5.12,2.09,1,5,.98,6.09-.38.94-1.17-.07-2.58.11-4.96.27-3.53,2.91-6.29,4.12-7.18Z" style="fill:#396555"></path>
          <path d="M117.16,344.88c.66-1.31.74-2.62.68-3.59-1.77-.78-3.63-.45-4.83-.11-.55,2-1.04,4.31-1.34,6.89-.03.24-.05.48-.08.72,2.49-.49,4.55-1.9,5.57-3.92Z" style="fill:#30413f"></path>
          <path d="M111.9,360.04c8.98,2.17,20.15,4.09,33.05,4.63,13.97.58,26.09-.63,35.71-2.26.43-1.86.71-4.49-.25-7.19-1.66-4.64-5.87-6.29-13.65-9.38-.11.53-.22,1.05-.34,1.58,6.76,3.47,7.75,5.55,7.55,6.77-.84,5.11-24.2,5.46-35.7,5-11.06-.43-20.27-1.97-26.81-3.38.09,1.54.25,2.96.44,4.22Z" style="fill:#1d0c0c"></path>
          <path d="M162.99,348.98c1.11-.3,2.9-.96,4.91-2.69-2.37-.94-5.1-2.01-8.22-3.35-16.03-6.85-21.97-12.02-26.06-9.04-1.05.76-3.16,2.93-3.89,5.78.46-.55,1.21-1.26,2.28-1.57,2.77-.8,5.7,1.66,7.02,2.71,5.66,4.48,16.34,10.2,23.96,8.15Z" style="fill:#30413f"></path>
          <path d="M133.11,351.62s-.03,0-.04,0c-.33-.02-.59-.31-.57-.65.08-1.2-.06-2.35-.42-3.44-.21-.63-.44-1.08-.65-1.48-.28-.55-.55-1.07-.62-1.81-.13-1.41.53-2.89,1.97-4.42.23-.24.61-.26.86-.03.24.23.26.61.03.86-1.19,1.26-1.74,2.43-1.64,3.48.05.51.23.87.49,1.37.21.42.48.93.72,1.66.41,1.23.57,2.54.48,3.9-.02.32-.29.57-.61.57Z" style="fill:#1d0c0c"></path>
          <path d="M132.88 354.56s-.02 0-.03 0c-.21-.02-.37-.2-.36-.41l.23-3.16c.01-.21.2-.37.41-.36.21.02.37.2.36.41l-.23 3.16c-.01.2-.18.36-.38.36ZM160.83 349.96c-.11 0-.23-.03-.33-.1-1.28-.82-2.95-2.16-4.28-4.17-2.2.34-4.35.98-6.38 1.92-.16.07-.34.07-.5 0-.16-.07-.28-.21-.33-.38-.4-1.33-.73-2.69-1-4.05-.05-.25-.1-.5-.14-.75-.21.04-.42.09-.63.14-1.54.35-3.09.78-4.6 1.26-.16.05-.33.04-.48-.05-.15-.08-.25-.22-.29-.38-.29-1.16-.55-2.34-.77-3.51-.1-.51-.19-1.02-.28-1.53 0 0 0 0 0 0-1.5.24-3.01.58-4.47 1.04-.32.1-.66-.08-.76-.4-.1-.32.08-.66.4-.76 1.51-.47 3.08-.83 4.64-1.08t0 0c-.13-.87-.25-1.75-.35-2.62-.04-.33.2-.63.54-.67.34-.04.63.2.67.53.1.86.22 1.73.35 2.59 2.02-.24 4.07-.29 6.1-.15.3.02.55.26.56.57.08 1.19.2 2.38.38 3.57 1.96-.37 3.95-.64 5.94-.8.31-.02.58.18.64.49.2.99.52 1.95.95 2.85.14.3.29.59.45.86 3.39-.4 6.78-.11 10.09.86.25.08.43.31.44.57 0 .27-.16.5-.42.59-1.02.34-2 .79-2.92 1.33-1 .58-1.93 1.28-2.78 2.06-.12.11-.26.16-.41.16ZM157.59 345.53c1.02 1.38 2.19 2.37 3.18 3.05.82-.71 1.7-1.35 2.64-1.9.45-.26.91-.5 1.39-.72-2.38-.51-4.79-.66-7.21-.43ZM149.05 342.2c.05.25.09.51.14.76.22 1.1.48 2.19.78 3.27 1.8-.77 3.67-1.32 5.58-1.65-.09-.17-.18-.35-.26-.53-.39-.83-.7-1.7-.92-2.6-1.78.16-3.56.41-5.31.75ZM142.01 338.21c.08.49.17.98.27 1.46.18.94.39 1.88.61 2.82 1.34-.42 2.71-.78 4.08-1.09.23-.05.47-.1.7-.15-.16-1.06-.28-2.13-.36-3.2-1.77-.09-3.54-.04-5.29.17Z" style="fill:#1d0c0c"></path>
          <path d="M196.61,308.6c-8.2-3.09-11.46-2.2-12.91-.75-1.88,1.9-.88,4.8-3.53,7.17-1.41,1.26-3.91,1.94-5.89,1.18-3.2-1.24-3.37-5.76-5.03-5.67-1.26.07-2.08,2.73-2.46,3.96-.97,3.14-.66,5.93-.32,7.6,6.96,5.65,13.43,9.01,18.09,11.02,11.54,5,29.01,9.13,37.25,2.71,2.16-1.68,2.57-3.22,2.68-3.89.87-5.3-7.97-10.22-8.53-10.52-6.45-4.27-12.9-8.54-19.34-12.81Z" style="fill:#396555"></path>
          <path d="M182.33,310.17c-.08,1.4,1.35,2.22,5.86,5.39,10.19,7.14,11.26,8.79,14.88,8.99,3.57.19,7.73-1.13,8.04-2.99.27-1.63-2.58-2.59-7.61-6.54-7.5-5.89-7.81-8.99-11.88-9.53-4.28-.57-9.15,2.17-9.29,4.67Z" style="fill:#30413f"></path>
          <path d="M206.92,324.22c1.23.64,2.98,1.72,4.69,3.47,1.4,1.43,4.15,4.26,3.57,6.14-1,3.21-11.44,2.52-12.84,2.43-10.92-.72-19.58-5.14-26.69-8.85-4.02-2.1-7.18-4.04-9.17-5.32.08,1.25.17,2.5.25,3.75,9.36,6.7,17.95,10.52,24.05,12.74,9.3,3.39,16.98,6.07,25.47,3.21,3.95-1.33,6.83-3.44,8.67-5.03.29-.88.95-3.22.11-5.99-.6-1.97-1.68-3.28-2.32-3.94-.03.96-.19,2.74-1.21,3.19-.89.39-2.04-.39-4.71-2.57-1.55-1.27-3.61-3-5.99-5.16-1.29.65-2.58,1.29-3.87,1.94Z" style="fill:#1d0c0c"></path>
          <path d="M181.96,325.02s-.08,0-.11-.01c-.31-.06-.51-.37-.45-.68.23-1.12.24-2.22.04-3.28-.12-.62-.28-1.07-.42-1.47-.2-.55-.38-1.07-.35-1.78.06-1.34.87-2.65,2.41-3.9.25-.2.61-.16.81.08.2.25.16.61-.08.81-1.27,1.03-1.94,2.06-1.98,3.06-.02.48.11.84.29,1.34.15.42.33.94.47,1.65.23,1.21.21,2.46-.04,3.72-.06.27-.3.46-.56.46Z" style="fill:#1d0c0c"></path>
          <path d="M181.35 327.75s-.05 0-.07 0c-.2-.04-.33-.24-.28-.43l.61-2.94c.04-.2.23-.33.43-.28.2.04.32.24.28.43l-.61 2.94c-.04.17-.19.29-.36.29ZM201.94 325c-.08 0-.15-.01-.22-.04-.18-.08-.31-.24-.34-.43-.31-1.75-.3-3.52.01-5.26-.27.02-.54.04-.81.06-1.96.19-3.9.65-5.76 1.38-.21.08-.46.03-.62-.13-.16-.16-.21-.41-.12-.62l1.52-3.7c-1.5.43-2.94 1.04-4.31 1.81-.2.11-.45.09-.64-.05-.18-.14-.26-.38-.2-.61.44-1.6 1.01-3.16 1.7-4.67l-6.73 1.38c-.31.06-.62-.14-.68-.45-.06-.31.14-.62.45-.68l7.59-1.55c.05-.1.1-.2.16-.3.68-1.3 1.47-2.56 2.33-3.75.19-.26.55-.32.8-.13.26.19.31.55.13.8-.71.98-1.37 2.02-1.96 3.08l4.07-.83c.21-.04.42.03.56.2.13.16.17.39.09.58l-1.46 3.56c2-.35 4.03-.41 6.07-.17.19.02.36.14.45.31s.08.37 0 .54c-.49.88-.88 1.81-1.16 2.77 2.65.04 5.31.54 7.83 1.5.23.09.38.3.37.55 0 .24-.16.46-.39.54-1.26.43-2.5.95-3.7 1.52-1.63.78-3.21 1.69-4.7 2.72-.1.07-.21.1-.33.1ZM202.56 319.22c-.28 1.39-.34 2.8-.19 4.21 1.31-.85 2.68-1.62 4.09-2.3.75-.36 1.51-.69 2.29-1-2.02-.6-4.11-.91-6.19-.91ZM196.98 315.9l-1.35 3.29c1.58-.52 3.2-.85 4.83-1.01.39-.04.79-.06 1.19-.08.24-.89.56-1.75.95-2.58-1.89-.14-3.78-.01-5.62.38ZM193.55 312.43c-.63 1.28-1.17 2.61-1.61 3.97 1.34-.65 2.75-1.15 4.2-1.5l1.34-3.28-3.93.8Z" style="fill:#1d0c0c"></path>
          <path d="M116.94,250.16c-5.06,25.01-10.12,50.01-15.18,75.02,2.39,2.71,11.09,11.92,25.83,14.35,15.85,2.62,27.74-4.41,30.62-6.22-2.23-26.63-4.46-53.26-6.7-79.89-11.52-1.09-23.05-2.17-34.57-3.26Z" style="fill:#575a58"></path>
          <path d="M77.15,241.62c1.18.84,2.4,1.65,3.68,2.43,15.83,9.72,33.19,11.12,46.87,10.13,11.61,23.62,23.22,47.23,34.83,70.85,1.74.18,22.88,2.07,34.95-13.41,5.15-6.6,6.56-13.68,7-17.7-13.98-21.02-27.73-42.19-41.26-63.5-2.77-4.37-5.53-8.74-8.29-13.12-.18-.28-.29-.46-.32-.51-8.17-1.26-24.69-2.68-43.77,3.95-16.78,5.83-27.93,15.25-33.7,20.89Z" style="fill:#575a58"></path>
          <path d="M162.53,325.39c-.13,0-.25-.07-.32-.2l-34.73-70.64c-2.01.14-4.04.23-6.05.25-1.97.02-3.97-.02-5.94-.12-.19,0-.34-.17-.33-.37,0-.19.18-.35.37-.33,1.96.1,3.94.14,5.9.12,2.07-.02,4.17-.11,6.24-.26.14-.01.28.07.34.2l34.83,70.85c.09.17.01.38-.16.47-.05.02-.1.04-.16.04Z" style="fill:#3d2121"></path>
          <path d="M127.7,254.54s-.04,0-.07,0c-.19-.04-.32-.22-.28-.41.48-2.49.54-5.02.19-7.5-.23-1.62-.65-3.23-1.24-4.77-.07-.18.02-.38.2-.45.18-.07.38.02.45.2.6,1.59,1.03,3.24,1.28,4.92.37,2.56.31,5.17-.19,7.73-.03.17-.18.29-.34.29Z" style="fill:#3d2121"></path>
          <path d="M127.7,254.54c-.15,0-.29-.1-.34-.25-.05-.19.05-.38.24-.43,1.07-.31,2.63-.99,3.97-2.49,1.37-1.53,1.88-3.19,2.07-4.31.03-.19.21-.32.4-.29.19.03.32.21.29.4-.2,1.21-.75,3.01-2.24,4.66-1.46,1.62-3.14,2.36-4.3,2.7-.03,0-.07.01-.1.01Z" style="fill:#3d2121"></path>
          <rect width="192.56" height="10.69" x="55.01" y="195.57" style="fill:#3d2121"></rect>
          <g style="mix-blend-mode:multiply;opacity:.43">
            <path d="M151.74,218.41c-3.62-.85-8.38,1.86-8.79,4.84-.8,5.75,14.36,13.83,17.04,11.3,1.46-1.38-.72-5.96-1.97-8.61-1.78-3.76-3.23-6.82-6.28-7.53Z" style="fill:#575a58"></path>
          </g>
          <rect width="11.24" height="151.22" x="62.18" y="200.91" style="fill:#3d2121"></rect>
          <path d="M135.76,211.43c1.14,1.44,2.29,2.87,3.43,4.31-9.15,1.82-20.33,4.83-32.55,9.95-12,5.03-21.85,10.77-29.49,15.94-.51-.7-1.2-1.87-1.31-3.39,0,0-.13-1.76.84-3.63,5.42-10.41,26.36-17.09,26.36-17.09,7.62-2.43,18.74-5.21,32.73-6.1Z" style="fill:#575a58"></path>
          <rect width="11.24" height="151.22" x="230.84" y="200.91" style="fill:#3d2121"></rect>
          <rect width="172.26" height="29.76" x="65.57" y="204.34" style="fill:#3d2121"></rect>
          <path d="M125.65,131.52c13.46,11.33,26.92,22.67,40.38,34,6.72,3.99,14.1,8.01,22.16,11.89,5.2,2.5,10.25,4.74,15.13,6.75,1.17-.44,2.88-1.01,4.99-1.48,3.59-.8,5.39-1.21,6.85-.63,3.25,1.29,4.09,5.67,4.8,9.42.45,2.36.21,3.34-.39,3.94-.93.92-2.52.68-3.01.59h-21.08c-12.61-5.3-25.22-10.59-37.83-15.89-11.35-8.74-22.7-17.47-34.05-26.21.68-7.46,1.36-14.92,2.04-22.39Z" style="fill:#be5b55"></path>
          <path d="M209.96,188.67c-.27,0-.55-.04-.86-.14-.85-.28-1.6-.89-2.21-1.8-.11-.16-.06-.38.1-.49.16-.11.38-.06.49.1.52.78,1.14,1.3,1.84,1.53.6.2,1.01.1,1.75-.08.54-.13,1.21-.28,2.2-.39.84-.09,1.49-.1,1.95-.1.74,0,.98-.02,1.14-.22.16-.21.42-.89-.66-2.86-.09-.17-.03-.38.14-.48.17-.09.38-.03.48.14.94,1.71,1.14,2.93.6,3.63-.37.48-.9.48-1.69.49-.48,0-1.08,0-1.88.1-.94.1-1.59.25-2.11.38-.47.11-.86.2-1.27.2Z" style="fill:#3d2121"></path>
          <g>
            <path d="M114.06,104.83c-.54,2.09-1.23,4.38-2.13,6.8-.91,2.44-1.88,4.64-2.84,6.59,2.18,1.32,4.87,2.71,8.04,3.93,4.03,1.55,7.71,2.38,10.7,2.84,1.09-4.19,2.18-8.38,3.28-12.56-5.68-2.53-11.37-5.07-17.05-7.6Z" style="fill:#be5b55"></path>
            <g style="mix-blend-mode:multiply;opacity:.27">
              <path d="M114.39,105.74c-.19.44-2.82,6.87.95,12.04.54.74,4.14,5.48,8.92,4.34,3.41-.81,6.05-4.29,6.15-8.53-5.34-2.62-10.68-5.23-16.02-7.85Z" style="fill:#bd5b53"></path>
            </g>
            <path d="M111.85,104.51c-2.06-.63-4.17-1.5-6.29-3.08-2.88-2.15-4.53-4.69-5.41-6.3-1.07-.37-2.73-1.14-4.14-2.72-3.57-4-2.28-9.52-2.13-10.12-.35-.33-3.25-3.14-2.8-7.31.32-2.97,2.14-4.82,2.69-5.34-.19-.88-.92-4.66,1.32-8.45,1.76-2.96,4.34-4.26,5.32-4.68-.05-.54-.31-4.36,2.63-7.28,3.4-3.37,8-2.5,8.35-2.43.67-.9,1.93-2.34,3.96-3.38,3.58-1.84,7.04-1.19,8.1-.94,1.1-.53,4.39-1.96,8.45-1.05,2.33.52,4.01,1.6,4.96,2.34,1.11-.29,2.83-.58,4.87-.29,3.85.54,6.33,2.77,7.23,3.67,1.01.23,2.67.76,4.35,2.03,2.34,1.78,3.36,3.99,3.75,5.01.54.27,3.82,1.99,4.81,5.8.6,2.31.07,4.26-.22,5.1.41.73.82,1.63,1.12,2.68.96,3.44.12,6.45-.4,7.87.21.62,1.31,4.18-.67,7.36-.71,1.14-1.6,1.89-2.29,2.35.09.72.58,5.16-2.57,8.56-1.54,1.67-3.32,2.4-4.34,2.72-2.48,3.22-4.96,5.16-6.58,6.25-12.33,8.33-27.41,3.69-34.07,1.65Z" style="fill:#22132b"></path>
            <path d="M157.88,73.29c-1.11-1.77-6.79-10.42-16.65-11.81-11.52-1.62-24.39,7.31-28.69,22.32-3.31-3.33-6.62-6.66-9.93-9.99.12-1.54,1.33-14.26,11.58-20.23,7.4-4.32,15.11-2.55,22.15-.93,3.04.7,11.27,2.58,16.02,8.44,2.44,3.01,3.96,6.78,3.96,6.78.85,2.12,1.3,4.01,1.55,5.42Z" style="fill:#22132b"></path>
            <path d="M151.38,62.2c1.3.89,3.2,2.21,4.66,4.66.73,1.22,3.67,6.62-1.42,20.48-3.74,10.18-8.9,24.24-20.91,26.85-1.29.28-5.61,1.07-10.47-.78-7.84-2.99-13.21-11.39-14.21-21.74-.69.1-1.68.16-2.83-.05-5.37-.99-9.58-7.2-9.62-13.13,0-.44.06-6.85,3.24-8.04,2.99-1.12,8.06,2.61,12.03,9.91-.02-3.61.59-9.87,4.89-15.06,8.52-10.27,25.63-9.24,34.65-3.09Z" style="fill:#be5b55"></path>
            <g style="mix-blend-mode:multiply;opacity:.46">
              <path d="M111.41,84.2c.31-.21-1.42-4.33-5.24-8.02-1.82-1.76-4.78-4.62-6.61-3.78-2.52,1.15-1.38,8.63-1.16,8.64.19,0,.3-5.31,1.24-5.38.68-.05.75,2.7,2.86,3.86,1.2.66,1.86.15,3.42.48,3.54.75,5.19,4.41,5.49,4.21Z" style="fill:#bd5b53"></path>
            </g>
            <g style="mix-blend-mode:multiply;opacity:.37">
              <path d="M110.35,84.38c.35-.67-1.06-2.38-2.77-3.19-1.19-.57-3.46-1.15-4.32-.17-1.62,1.83,2.67,8.16,3.4,7.88.45-.17-.7-2.74.53-3.85,1.03-.94,2.8,0,3.15-.66Z" style="fill:#bd5b53"></path>
            </g>
            <g style="mix-blend-mode:multiply;opacity:.46">
              <path d="M139.84,97.55c1.76.3,2.21.06,2.44-.15,1.11-1.03.47-4.48-1.65-5.8-1.97-1.22-4.41-.1-5.52.41-1.12.52-2.26,1.04-2.32,1.86-.13,1.67,4.26,3.21,7.05,3.68Z" style="fill:#bd5b53"></path>
            </g>
            <path d="M137.26,105.24c.24.8.09,1.21-.07,1.43-.71.98-3.19.28-4.38-.24-2.76-1.21-4.1-3.84-4.65-5.2,3.03,1.33,6.07,2.67,9.1,4Z" style="fill:#852d2b"></path>
            <path d="M128.03,101.15c-.21.48,2.23,2.17,4.84,3.24.09.04.17.07.3.12,1.05.41,4.4,1.6,5.5.27.36-.43.42-1.06.27-1.5-.47-1.39-3.43-1.51-3.81-1.52-.85-.04-1.29-.04-1.29-.04-.59,0-.83,0-1.28-.03-.37-.04-.63-.09-.94-.15-.84-.14-1.09-.28-1.57-.38-.43-.09-1.87-.34-2.01,0Z" style="fill:#711f2b"></path>
            <g style="mix-blend-mode:multiply;opacity:.46">
              <path d="M140.24,89.76c1.46.66,1.89,2.25,2.56,4.66.15.56.29,1.21-.04,1.52-.35.34-.9-.07-1.96.04-1.22.13-1.41.77-2.01.61-.91-.24-.63-1.7-1.78-2.8-1.23-1.19-2.75-.66-2.91-1.24-.25-.95,3.44-4.02,6.13-2.8Z" style="fill:#bd5b53"></path>
            </g>
            <g style="opacity:.11;mix-blend-mode:multiply">
              <path d="M143.52,87.27c-1.43-.93-2.74-1.13-4.5-1.4-5-.77-7.04,1.01-10.37,1.01-7.45,0-10.57-8.87-13.83-7.57-2.71,1.09-3.88,8.59-.42,12.72,3.65,4.35,10.81,3.02,11.74,2.84,6.94-1.39,9.48-7.11,14.17-5.82.06.02.15.04.27.08,0,0,1.87.59,3.25,2.29,2.2,2.71-1.2,8.08,1.24,10.38.58.54,1.41.85,2.14.75,1.62-.2,2.5-2.28,3.86-5.62,1.04-2.56,1.69-4.18.98-4.91-.66-.68-1.67.32-3.37-.15-2.39-.67-2.57-2.92-5.17-4.6Z" style="fill:#bd5b53"></path>
            </g>
            <path d="M130.15 88.4c-.03.13.09.26.27.3.18.04.34-.03.37-.16.03-.13-.09-.26-.27-.3-.18-.04-.34.03-.37.16ZM126.23 88.53c-.03.13.09.26.27.3.18.04.34-.03.37-.16s-.09-.26-.27-.3c-.18-.04-.34.03-.37.16ZM127.72 90.7c-.03.13.09.26.27.3.18.04.34-.03.37-.16.03-.13-.09-.26-.27-.3s-.34.03-.37.16ZM123.71 89.23c-.03.13.09.26.27.3.18.04.34-.03.37-.16.03-.13-.09-.26-.27-.3-.18-.04-.34.03-.37.16ZM123.41 86.86c-.03.13.09.26.27.3.18.04.34-.03.37-.16.03-.13-.09-.26-.27-.3-.18-.04-.34.03-.37.16ZM120.3 86.42c-.03.13.09.26.27.3.18.04.34-.03.37-.16.03-.13-.09-.26-.27-.3-.18-.04-.34.03-.37.16ZM117.52 84.41c-.03.13.09.26.27.3.18.04.34-.03.37-.16.03-.13-.09-.26-.27-.3-.18-.04-.34.03-.37.16ZM117.88 87.51c-.03.13.09.26.27.3s.34-.03.37-.16c.03-.13-.09-.26-.27-.3-.18-.04-.34.03-.37.16ZM115.04 84.55c-.03.13.09.26.27.3.18.04.34-.03.37-.16.03-.13-.09-.26-.27-.3-.18-.04-.34.03-.37.16ZM116.32 81.78c-.03.13.09.26.27.3.18.04.34-.03.37-.16.03-.13-.09-.26-.27-.3-.18-.04-.34.03-.37.16ZM134.18 88.61c-.03.13.09.26.27.3.18.04.34-.03.37-.16.03-.13-.09-.26-.27-.3-.18-.04-.34.03-.37.16ZM142.38 89.36c-.03.13.09.26.27.3.18.04.34-.03.37-.16.03-.13-.09-.26-.27-.3-.18-.04-.34.03-.37.16ZM139.98 87.12c-.03.13.09.26.27.3.18.04.34-.03.37-.16.03-.13-.09-.26-.27-.3-.18-.04-.34.03-.37.16ZM138.14 87.69c-.03.13.09.26.27.3.18.04.34-.03.37-.16s-.09-.26-.27-.3c-.18-.04-.34.03-.37.16ZM136.06 86.89c-.03.13.09.26.27.3.18.04.34-.03.37-.16.03-.13-.09-.26-.27-.3-.18-.04-.34.03-.37.16ZM145.4 91.55c-.03.13.09.26.27.3s.34-.03.37-.16c.03-.13-.09-.26-.27-.3-.18-.04-.34.03-.37.16ZM145.64 94.03c-.03.13.09.26.27.3s.34-.03.37-.16-.09-.26-.27-.3c-.18-.04-.34.03-.37.16ZM147.48 93.2c-.03.13.09.26.27.3.18.04.34-.03.37-.16.03-.13-.09-.26-.27-.3-.18-.04-.34.03-.37.16ZM148.27 95.93c-.03.13.09.26.27.3.18.04.34-.03.37-.16.03-.13-.09-.26-.27-.3-.18-.04-.34.03-.37.16ZM146.51 96.96c-.03.13.09.26.27.3.18.04.34-.03.37-.16.03-.13-.09-.26-.27-.3-.18-.04-.34.03-.37.16ZM150.06 94.16c-.03.13.09.26.27.3.18.04.34-.03.37-.16.03-.13-.09-.26-.27-.3-.18-.04-.34.03-.37.16ZM132.77 84.59c-.82 1.52-2.41 2.14-3.53 1.38-1.13-.76-1.37-2.6-.55-4.12.83-1.52 2.41-2.14 3.53-1.38 1.13.76 1.37 2.6.55 4.12Z" style="fill:#852d2b"></path>
            <path d="M132.38,84.33c-.67,1.23-1.94,1.73-2.85,1.11-.91-.61-1.11-2.1-.44-3.33s1.94-1.73,2.85-1.11c.91.61,1.11,2.1.44,3.33Z" style="fill:#25172f"></path>
            <path d="M133.11,82.85c-.44.24-.87.19-.96-.11-.09-.31.2-.75.64-1,.44-.24.87-.19.96.11.09.3-.2.75-.64,1Z" style="fill:#f3f1f3"></path>
            <g style="opacity:.06">
              <path d="M131.15,80.15c.62,1.3,1.25,2.59,1.88,3.89-1.47-.68-2.94-1.36-4.41-2.04.17-.34.75-1.43,1.93-1.76.21-.06.41-.08.6-.09Z" style="fill:#f3f1f3"></path>
            </g>
            <path d="M150.13,91.15c-.82,1.52-2.41,2.14-3.53,1.38-1.13-.76-1.37-2.6-.55-4.12.83-1.52,2.41-2.14,3.53-1.38,1.13.76,1.37,2.6.55,4.12Z" style="fill:#852d2b"></path>
            <path d="M149.74,90.9c-.67,1.23-1.94,1.73-2.85,1.11-.91-.61-1.11-2.1-.44-3.33.67-1.23,1.94-1.73,2.85-1.11.91.61,1.11,2.1.44,3.33Z" style="fill:#25172f"></path>
            <path d="M150.47,89.42c-.44.24-.87.19-.96-.11-.09-.31.2-.75.64-1,.44-.24.87-.19.96.11.09.31-.2.75-.64,1Z" style="fill:#f3f1f3"></path>
            <g style="opacity:.06">
              <path d="M148.51,86.71c.62,1.3,1.25,2.59,1.88,3.89-1.47-.68-2.94-1.36-4.41-2.04.17-.34.75-1.43,1.93-1.76.21-.06.41-.08.6-.09Z" style="fill:#f3f1f3"></path>
            </g>
            <path d="M138.63 69.32c-1.09.46-.1 2.78-1.67 4.36-1.12 1.13-2.6.91-2.83 1.9-.18.8.71 1.26.46 2.06-.26.83-1.34.7-1.72 1.56-.46 1.05.71 2.2.45 2.42-.4.35-4.04-1.78-3.49-3.67.31-1.06 1.77-1.49 2.02-1.56-.66-.41-2.15-1.46-3.05-3.44-1.35-2.97-.34-5.74-.13-6.29-1.39.46-3.14 1.24-3.36 2.54-.25 1.48 1.61 2.69 1.15 3.54-.56 1.03-3.79.09-4.04.84-.2.58 1.57 1.48 1.33 2.16-.18.5-1.25.26-1.63.83-.4.6.17 1.71.88 2.73-1.75-.51-2.25-1.16-2.37-1.67-.18-.76.49-1.15.35-2.11-.18-1.23-1.44-1.51-1.33-2.23.15-.96 2.48-.96 2.61-1.91.09-.66-1-.98-1.12-2-.08-.69.33-1.3.7-1.74-.41.2-1.34.6-2.57.52-1.32-.09-2.24-.68-2.61-.95.79.75 1.08 1.84.74 2.65-.48 1.13-2.18 1.76-3.68.93 0 1.08-.18 2.34-1.03 2.9-.95.62-1.86-.19-3.01.43-1.29.7-.97 2.19-2.12 2.87-.58.34-1.63.54-3.64-.46 1.79-.24 2.33-.69 2.44-1.11.08-.31-.11-.43-.24-1.09-.1-.51-.03-.66.11-2.27.12-1.37.11-1.53.27-1.89.26-.59.73-.95 1.05-1.14-.31-3.33.51-5.27 1.34-6.42 1.09-1.52 2.14-1.63 3.11-3.56.96-1.9.33-2.54 1.41-4.01.32-.44 1.22-1.18 3.02-2.67 1.38-1.14 1.13-1.31 1.91-1.92 1.14-.9 2.15-1.26 3.84-1.86 2.45-.87 3.33-.73 3.79-.6.55.15.45.3 1.13.5 1.61.47 2.22-.13 4.53.26 1.25.21 2.25.59 2.9.88.16-.75.5-1.69 1.3-2.16.85-.5 1.44-.03 2.71-.22 2.18-.34 2.51-2.05 3.85-1.87 1.27.16 2.67 1.9 2.25 3.42-.28 1.01-1.25 1.52-1.5 1.64.36-.38 2.02-2.06 4.53-2.08 2.73-.02 4.56 1.95 4.76 2.17.86.95.76 1.48 1.7 2.17 1.15.84 2.06.6 3.26 1.04 1 .37 2.28 1.23 3.42 3.45.34-.24 1.16-.74 2.21-.67 2.1.12 3.12 2.33 3.22 2.57.94 2.13-.2 4.15-.33 4.38 1.85.61 3.55 1.47 3.66 2.66.12 1.24-1.56 2.19-1.25 2.89.18.4.98.67 3.43.31-.48.31-1.23.73-2.22 1.04-1.18.37-2.77.88-3.52.2-1.01-.92.38-3.32-.48-3.96-.54-.4-1.63.12-2.5.67.35.44.79 1.11 1.04 2 .51 1.81-.25 2.87.35 3.45.77.74 2.3-.79 4.02-.11 1.16.46 2.1 1.79 2.11 3.27 0 1.38-.79 2.66-2.06 3.31.26-1.57-.08-2.25-.44-2.57-.77-.68-1.9 0-3.35-.45-1.22-.39-2.01-1.37-2.5-2.19-.06.65-.05 1.68.44 2.72 1.17 2.46 3.9 2.49 4.64 4.44.29.77.35 2.06-1.06 4.21 0-1.22-.21-2.8-1.29-3.62-1.51-1.14-3.16.35-5.03-.57-2.66-1.31-1.86-5.53-4.01-6.1-1.28-.34-3.01.79-3.12 1.82-.14 1.32 2.41 2.06 2.32 3.5-.05.95-1.23 1.65-2.1 2.07.27-.65.5-1.55.13-2.34-.72-1.56-3.02-1.02-3.96-2.52-1.02-1.63.97-3.47-.02-4.9-.96-1.39-4.09-1.43-4.75-.34-.76 1.26 2.23 3.32 1.6 5.82-.33 1.32-1.52 2.16-2.41 2.64.59-.87 1.13-1.98.73-2.83-.66-1.41-3.33-.79-3.97-2.15-.65-1.38 1.69-2.88 1.07-4.73-.41-1.22-1.96-2.12-2.79-1.77ZM99.13 61.59c-.43-.22-1.12 1.97-3.79 3.44-2.29 1.27-3.87.81-4.66 2.06-.63 1-.32 2.39.22 3.65-.1-.89-.12-2.2.68-2.9 1.23-1.08 3.12.4 5.01-.45 2.51-1.13 3.12-5.5 2.54-5.81Z" style="fill:#22132b"></path>
            <path d="M141.91 45.4c2.88.36 4.13-3.15 6.36-2.89 1.7.2 1.71 2.31 4.64 3.98 1.25.71 2.46 1.01 3.31 1.14-2.33-.83-3.47-1.99-4.08-2.91-.79-1.19-.79-2.1-1.88-3.06-1.27-1.12-2.82-1.26-3.05-1.28-3.54-.27-6.79 3.48-6.31 4.58.15.34.68.41 1.02.45ZM157.54 87.52c1.8.5 3.07 2.1 3.12 3.92.05 1.96-1.33 3.74-3.31 4.2 2.19-.17 4.01-1.56 4.5-3.36.66-2.4-1.08-5.36-4.18-6.03-.04.42-.08.85-.13 1.28ZM152.9 96.05c.28.15-1.35 2.31-.53 4.55.44 1.21 1.33 1.75 1.18 1.95-.23.3-2.43-.32-3.04-1.84-.88-2.18 2.06-4.85 2.39-4.66ZM114.9 45.33c.16-.39-4.04-4.19-7.71-2.7-2.79 1.13-4.53 5.02-3.3 9.07.51-2.71 1.58-5.84 4.08-6.98 3.09-1.4 6.79.96 6.93.61ZM99.24 92.26c-.59.32 1.05 2.88-.01 4.74-.68 1.19-2.2 1.64-3.49 1.81 1.57.94 3.54.73 4.75-.45 1.07-1.04 1.32-2.62.91-3.87-.45-1.37-1.73-2.45-2.15-2.23Z" style="fill:#22132b"></path>
            <path d="M108.81,116.96c-4.2,1.83-8.46,3.73-12.76,5.72-7.66,3.54-15.02,7.15-22.08,10.77,3.92,5.16,11.49,16.68,12.56,32.83.47,7.12-.45,13.22-1.57,17.81,1.5,7.96,3,15.92,4.5,23.88.97,1.01,15.24,15.43,33.92,11.36,9.9-2.16,16.08-8.43,18.48-11.18,3.73-9.84,7.63-22.85,9.68-38.48,1.97-15.01,1.68-28.1.73-38.31-7.88-4.07-15.76-8.14-23.65-12.21-6.6-.74-13.2-1.47-19.8-2.21Z" style="fill:#be5b55"></path>
            <path d="M129.36,119.18c.41.95,1.26,3.29.61,6.08-1.26,5.33-6.83,7.19-7.18,7.29-.58,3.66-1.15,7.32-1.73,10.98-1.87-3.83-3.74-7.67-5.6-11.5-.96-.32-4.11-1.49-6.01-4.74-2-3.42-1.86-7.83.31-11.48-3.67,1.64-7.34,3.29-11.01,4.93-.77,5.17-1.14,13.25,2.04,22.1,1.72,4.79,3.9,10.85,10.07,15.11,1.62,1.12,8.44,5.84,15.61,3.84,10.16-2.82,13.94-17.14,13.55-26.49-.22-5.12-1.71-9.2-2.87-11.74-2.59-1.46-5.19-2.92-7.78-4.39Z" style="fill:#dadada"></path>
            <path d="M129.67 118c-.55 2.19-1.4 4.83-2.77 7.71-1.33 2.79-2.79 5.07-4.11 6.85 3.07 1.95 6.14 3.91 9.21 5.86.74-1.32 3.03-5.81 2.01-11.63-.8-4.58-3.24-7.58-4.35-8.79ZM110.8 114.51c-.46 1.7-1.52 6.48.67 11.71 1.16 2.77 2.81 4.68 3.99 5.82-3.3 1.63-6.59 3.26-9.89 4.88-.54-1.12-3.77-8.07-.54-15.37 1.65-3.73 4.28-5.97 5.77-7.04Z" style="fill:#efefef"></path>
            <path d="M104.85,118.15c6.19,14.44,12.39,28.87,18.58,43.31,4.49-12.67,8.97-25.35,13.46-38.02,5.34,2.67,10.68,5.34,16.02,8.01,4.79,9.87,9.58,19.74,14.37,29.6-2.21,2.46-4.5,5.2-6.78,8.25-3.35,4.47-6.09,8.79-8.34,12.77-.28,11.53-.57,23.05-.85,34.58-6.25,2.69-16.49,6.12-29.44,6.28-19.14.23-33.4-6.85-39.86-10.6.83-9.86,1.66-19.72,2.49-29.58-1.98,2.2-3.95,4.4-5.92,6.61-2.67-5.27-6.53-11.66-12.11-18.17-3.58-4.18-7.16-7.6-10.44-10.37,6.18-9.64,12.37-19.29,18.55-28.93,5.76-2.84,11.75-5.67,17.98-8.45,4.15-1.85,8.24-3.61,12.28-5.29Z" style="fill:#3d2121"></path>
            <g style="mix-blend-mode:multiply">
              <path d="M71.91,172.76c2.26-2.76,4.63-6.03,6.89-9.83,4.45-7.48,7.01-14.58,8.54-20.26-1.45,14.09-2.9,28.18-4.34,42.27-3.69-4.06-7.39-8.13-11.08-12.19Z" style="fill:#ebf38f"></path>
            </g>
            <path d="M56.04,160.82c3.95,3.34,8.59,7.83,13.13,13.67,4.18,5.37,7.21,10.51,9.41,14.87,1.47-1.47,2.94-2.93,4.41-4.4-1.47-4.09-4.15-10.04-9.06-16.13-5.26-6.53-10.93-10.56-14.77-12.86-1.04,1.62-2.08,3.24-3.12,4.86Z" style="fill:#ec5338"></path>
            <g style="mix-blend-mode:multiply">
              <path d="M152.17,182.08c-.84-8.63-1.53-17.62-2-26.95-.34-6.79-.56-13.41-.67-19.85,1.7,9.14,3.88,18.69,6.65,28.58.77,2.76,1.57,5.47,2.4,8.13-2.13,3.36-4.26,6.72-6.38,10.08Z" style="fill:#ebf38f"></path>
            </g>
            <path d="M165.31 156.98c-2.87 3.25-5.84 6.96-8.79 11.15-1.83 2.6-3.46 5.14-4.94 7.59.19 2.12.39 4.23.58 6.35 2.54-3.98 5.33-8.1 8.42-12.31 2.25-3.07 4.49-5.97 6.7-8.71-.66-1.36-1.32-2.71-1.98-4.07ZM104.85 118.15c-1.78.75-3.55 1.5-5.33 2.25 7.88 17.14 15.76 34.28 23.64 51.41 6.09-15.37 12.19-30.74 18.28-46.11-1.52-.76-3.03-1.52-4.55-2.27-4.49 12.67-8.97 25.35-13.46 38.02-6.19-14.44-12.39-28.87-18.58-43.31Z" style="fill:#ec5338"></path>
          </g>
          <path d="M216.55,196.01c-1.58-2.64-3.16-5.27-4.73-7.91-6.57-.99-15.24-1.55-25.22-.18-5.22.72-9.87,1.83-13.87,3.06-6.03-2.26-13.81-4.59-23.06-5.94-9.48-1.39-17.79-1.37-24.32-.9-1.16,3.96-2.32,7.92-3.48,11.87h94.68Z" style="fill:#dee5ef"></path>
          <path d="M121.39,191.58c17.21,1.04,34.43,2.08,51.64,3.12,14.41-.44,28.82-.88,43.23-1.32.36.88.72,1.75,1.08,2.63h-97.24c.43-1.48.86-2.95,1.28-4.43Z" style="fill:#c33c25"></path>
          <path d="M56.29,174.54c8.97.38,19.19,1.34,30.33,3.32,11.56,2.05,21.82,4.8,30.62,7.65,4.54-1.91,9.09-3.83,13.63-5.74,5.31.39,8.01,1.07,8.12,2.04.03.25-.11.51-.42.8-.67.29-1.57.59-2.65.76-1.52.23-2.8.11-3.68-.05,2.08.62,4.15,1.23,6.23,1.85,2.27-.87,4.13-.87,5.19-.78,1.34.12,2.61.27,3.4,1.27.56.71.59,1.62.54,2.27.13.16.74.9.66,1.97-.06.73-.41,1.24-.57,1.44.09.35.22,1.09-.03,1.97-.35,1.22-1.21,1.88-1.49,2.08H50.85c-4.54-1.79-7.61-5.79-7.65-9.91-.06-5.67,5.62-11.29,13.1-10.94Z" style="fill:#be5b55"></path>
          <path d="M134.64 184.04c-1.3 0-2.4-.31-3.16-.62-.18-.07-.27-.28-.19-.46s.28-.27.46-.19c.94.38 2.44.77 4.19.46.86-.15 1.69-.46 2.46-.91.17-.1.38-.04.48.12.1.17.04.38-.12.48-.84.49-1.74.83-2.69 1-.49.09-.97.13-1.42.13ZM141.34 188.86s-.03 0-.04 0l-8.13-.96c-.19-.02-.33-.2-.31-.39.02-.19.2-.33.39-.31l8.08.95 6.23-1.03c.19-.03.37.1.4.29.03.19-.1.37-.29.4l-6.28 1.04s-.04 0-.06 0ZM141.92 192.05s-.03 0-.04 0l-8.91-1.08c-.19-.02-.33-.2-.31-.39.02-.19.2-.33.39-.31l8.88 1.07 5.74-.35c.2 0 .36.14.37.33.01.19-.14.36-.33.37l-5.77.35s-.01 0-.02 0ZM141.56 194.98s-.03 0-.05 0l-8.25-1.2c-.19-.03-.33-.21-.3-.4.03-.19.2-.32.4-.3l8.22 1.19 5.59-.28c.21-.01.36.14.37.33 0 .19-.14.36-.33.37l-5.62.28s-.01 0-.02 0Z" style="fill:#3d2121"></path>
          <path d="M59.53,160.04c-2.7,2.93-5.59,6.4-8.47,10.45-3.04,4.28-5.46,8.38-7.39,12.07,6.97.6,13.93,1.2,20.9,1.8,3.18-3.36,6.37-6.73,9.55-10.09-4.86-4.74-9.73-9.49-14.59-14.23Z" style="fill:#be5b55"></path>
        </g>
        <path d="M191.44 50.25c2.12-2.12 3.71-4.71 4.64-7.56-.58-.08-1.16-.16-1.73-.23-.09 2.32-.18 4.64-.51 6.94-.33 2.32-.76 4.64-.66 6.99.05 1.13 1.82 1.14 1.76 0-.11-2.31.33-4.58.64-6.87.32-2.34.44-4.7.52-7.07.04-1.03-1.43-1.15-1.73-.23-.84 2.56-2.28 4.88-4.18 6.78-.81.8.44 2.05 1.25 1.25h0ZM199.79 41.26c-.04 1.85-.26 3.69-.66 5.5-.17.79.6 1.32 1.3 1 1.02-.48 2.1.3 2.74 1.04.75.86 1.28 2 1.23 3.15-.04.86-.57 1.76-1.39 2.09-.55.23-1.14.07-1.7-.06-.71-.16-1.43-.31-2.14-.47-1.11-.24-1.58 1.46-.47 1.7.71.16 1.43.31 2.14.47.68.15 1.36.29 2.05.19 1.19-.17 2.22-1 2.77-2.05 1.21-2.31.07-5.29-1.84-6.88-1.22-1.01-2.79-1.42-4.27-.72.43.33.86.66 1.29 1 .43-1.96.67-3.96.72-5.97.02-1.14-1.74-1.13-1.76 0h0Z" style="fill:#fff"></path>
        <path d="M201.18 42.08c.9.08 1.8.1 2.7.06.46-.02.9-.39.88-.88-.02-.46-.39-.91-.88-.88-.9.05-1.8.03-2.7-.06-.21-.02-.48.11-.62.26-.15.15-.27.4-.26.62 0 .23.08.46.26.62.18.17.38.24.62.26h0ZM216.63 41.94c-2.21 1.15-3.9 3.11-4.83 5.41-.96 2.36-1.16 5.44.64 7.45 1.91 2.14 5.19 1.43 7.25-.11 2.12-1.59 3.37-4.12 3.18-6.8-.11-1.48-.58-3.17-1.72-4.19-1.16-1.04-2.71-1.19-4.2-1.26-1.13-.05-1.13 1.71 0 1.76.95.04 2.08.06 2.86.66.77.59 1.1 1.69 1.25 2.6.32 2.04-.45 4.1-1.98 5.46-1.26 1.12-3.72 2.21-5.17.85-1.5-1.41-1.18-3.85-.55-5.6.74-2.03 2.26-3.72 4.17-4.72 1.01-.53.12-2.05-.89-1.52h0ZM227.55 45.65c.3 1.45.95 2.8 1.64 4.11.75 1.41 1.51 2.81 2.26 4.21.54 1 2.06.11 1.52-.89-.73-1.36-1.47-2.72-2.19-4.09-.65-1.22-1.25-2.45-1.54-3.81-.1-.47-.65-.74-1.09-.62-.49.13-.71.62-.62 1.08h0Z" style="fill:#fff"></path>
        <path d="M233.36 44.94c-2.19 2.98-4.23 6.07-6.13 9.24-.58.98.94 1.87 1.52.89 1.9-3.17 3.95-6.26 6.13-9.24.28-.38.06-.98-.32-1.21-.45-.26-.92-.07-1.21.32h0ZM188.03 60.84c6.65.04 13.3.06 19.96.06 6.65 0 13.3-.02 19.95-.05 3.75-.02 7.5-.05 11.25-.08 1.13 0 1.14-1.77 0-1.76-6.65.06-13.3.1-19.96.12-6.65.02-13.3.02-19.95 0-3.75 0-7.5-.02-11.25-.05-1.14 0-1.14 1.76 0 1.76h0ZM203.66 72.99c1.96-1.54 3.52-3.57 4.5-5.86-.55-.15-1.1-.3-1.64-.45 0 4.85 0 9.71.01 14.56 0 1.13 1.76 1.14 1.76 0 0-4.85 0-9.71-.01-14.56 0-.81-1.28-1.29-1.64-.44-.93 2.17-2.36 4.04-4.22 5.5-.38.29-.31.94 0 1.25.37.37.87.29 1.25 0h0ZM210.2 65.76c0 1.54.01 3.09.02 4.63 0 .71.74 1.05 1.33.76.35-.17.84-.44 1.24-.35.35.08.52.52.65.81.42.95.7 2 .66 3.04-.04.81-.35 1.87-1.06 2.35-.78.53-1.71-.48-2.21-.97-.81-.8-2.06.45-1.25 1.25 1.09 1.08 2.62 2.18 4.2 1.33 1.34-.72 1.96-2.38 2.07-3.81.11-1.48-.33-3.15-1.07-4.43-.41-.71-1.04-1.23-1.87-1.31-.79-.08-1.55.24-2.25.58.44.25.88.51 1.33.76 0-1.54-.01-3.08-.02-4.63 0-1.13-1.77-1.14-1.76 0h0Z" style="fill:#fff"></path>
        <path d="M212.59 68.32c.39-.09.78-.17 1.18-.23.18-.03.37-.06.55-.08-.15.02.1-.01.13-.02.11-.01.21-.02.32-.04.78-.08 1.57-.11 2.36-.1.46 0 .9-.41.88-.88-.02-.48-.39-.88-.88-.88-1.68-.03-3.37.16-5.01.53-.45.1-.76.65-.62 1.08.15.47.6.73 1.09.62h0ZM218.67 71.7c0 1.43.02 2.85.02 4.28 0 1.05.02 2.31.94 3.01 1.18.9 2.46 0 3.17-1.01.77-1.08 1.18-2.34 1.32-3.65h-1.76c-.18 4.08.97 8.02 1.45 12.04.05.46.1.93.14 1.4.02.25.03.49.04.74 0 .11-.02.25.01.36 0 .04 0 .07 0 .11-.05-.16.07-.27.34-.34-.04-.04-.4-.06-.47-.07-.23-.04-.47-.09-.7-.14-.46-.1-.92-.23-1.34-.46-.54-.29-1.08-.79-1.16-1.43-.09-.72.45-1.34.96-1.78.67-.58 1.51-.94 2.27-1.39.85-.5 1.62-1.11 2.15-1.96.6-.97-.93-1.85-1.52-.89-.46.74-1.24 1.18-1.98 1.6-.85.47-1.71.94-2.41 1.63-.71.7-1.25 1.64-1.23 2.67.01 1.01.55 1.96 1.32 2.59.87.71 1.93 1.04 3.02 1.24.54.1 1.14.27 1.67.06.56-.22.82-.75.85-1.32.07-1.15-.15-2.36-.31-3.5-.16-1.15-.36-2.29-.56-3.43-.45-2.55-.88-5.11-.77-7.71.02-.48-.42-.88-.88-.88-.52 0-.83.41-.88.88-.1.87-.41 1.71-.88 2.44-.17.27-.39.64-.69.79-.07.04-.19 0-.1.03-.04-.01-.08-.11-.11-.17-.29-.74-.14-1.69-.15-2.48 0-1.08-.01-2.17-.02-3.25 0-1.13-1.77-1.14-1.76 0h0ZM247.39 61.68c1.32-.07 2.64-.14 3.96-.22.46-.02.9-.39.88-.88-.02-.46-.39-.91-.88-.88-1.32.07-2.64.14-3.96.21-.46.03-.9.39-.88.88.02.46.39.91.88.88h0ZM266.31 50.53c.52-2.44 1.03-4.89 1.55-7.33-.58-.08-1.16-.16-1.73-.23-.27 4-.33 8-.19 12.01.04 1.13 1.8 1.14 1.76 0-.15-4-.08-8.01.19-12.01.07-.99-1.53-1.21-1.73-.23-.52 2.44-1.03 4.89-1.55 7.33-.23 1.11 1.47 1.58 1.7.47h0ZM271.35 44.05c-.07 1.47-.07 2.95 0 4.42.06 1.32.16 2.68.54 3.95.37 1.2.99 2.44 2.08 3.12 1.07.67 2.5.64 3.72.59 1.15-.05 2.35-.29 3.21-1.12.95-.92 1.22-2.38 1.31-3.64.19-2.44-.62-4.98-2.09-6.92-.44-.58-.93-1.12-1.56-1.49-.66-.39-1.42-.54-2.17-.58-1.43-.07-2.9.3-3.96 1.29-.83.78.42 2.02 1.25 1.25.67-.62 1.6-.8 2.49-.78 1.05.02 1.8.4 2.44 1.22 1.18 1.49 1.86 3.41 1.87 5.3 0 .9-.09 1.99-.57 2.78-.45.73-1.36.88-2.15.92-.86.04-1.99.15-2.78-.28-.78-.43-1.17-1.4-1.41-2.21-.35-1.19-.42-2.44-.47-3.67-.05-1.39-.05-2.77.01-4.16.05-1.13-1.71-1.13-1.76 0h0ZM286.4 48.46s.01-.03.02-.05c-.18.13-.35.27-.53.41.02 0 .03 0 .05 0h-.47c-.28-.24-.36-.26-.22-.07.04.07.09.15.13.22.08.13.16.26.24.39.17.28.34.56.5.84.32.52.63 1.05.94 1.57.65 1.08 1.3 2.16 1.96 3.25.58.97 2.11.08 1.52-.89-.8-1.33-1.6-2.65-2.39-3.97-.39-.65-.79-1.31-1.18-1.96-.21-.34-.38-.73-.73-.95-.44-.28-1.14-.18-1.38.33-.2.43-.12.95.32 1.21.38.22 1.01.12 1.21-.32h0Z" style="fill:#fff"></path>
        <path d="M291.33 46.95c-1.69 2.27-3.45 4.48-5.27 6.64-.31.36-.36.89 0 1.25.31.31.94.37 1.25 0 1.92-2.28 3.77-4.61 5.55-7 .29-.38.06-.99-.32-1.21-.45-.26-.92-.07-1.21.32h0ZM259.82 62.86c9.02.07 18.03.04 27.05-.1 2.55-.04 5.11-.09 7.66-.14 1.13-.03 1.14-1.79 0-1.76-9.01.2-18.03.29-27.04.28-2.55 0-5.11-.01-7.66-.04-1.13 0-1.14 1.76 0 1.76h0ZM236.37 46.69c.22 1.3-.18 2.63.12 3.93.26 1.11.99 2.19 2.14 2.49 1.24.33 2.54-.32 3.31-1.28.82-1.02 1.23-2.35 1.07-3.66-.08-.63-.7-1.15-1.33-.76-1.02.63-1.18 1.77-1.27 2.87-.1 1.26-.12 2.52-.11 3.79.02 2.58.15 5.17-.07 7.75-.05.62-.15 1.62-.63 1.99-.71.56-1.75-.72-2.18-1.2-.74-.82-1.37-1.74-1.89-2.71-.16-.29-.47-.73-.35-1.08.14-.39.57-.62.94-.74.63-.2 1.3-.25 1.95-.37.64-.11 1.27-.25 1.89-.41 1.38-.36 2.71-.85 4.01-1.43.43-.2.54-.83.32-1.21-.26-.45-.77-.51-1.21-.32-1.21.54-2.46.97-3.74 1.3-.62.16-1.26.29-1.89.4-.64.11-1.31.17-1.93.39-1.23.44-2.31 1.54-2.08 2.93.09.56.38 1.08.65 1.57.32.58.68 1.15 1.08 1.68.74 1 1.62 2.16 2.75 2.75 1.17.61 2.49.38 3.27-.7.63-.86.74-1.97.82-3 .11-1.43.12-2.87.1-4.31-.02-1.61-.07-3.22-.04-4.83.02-.8.05-1.61.12-2.41.03-.37.05-.97.39-1.18-.44-.25-.88-.51-1.33-.76.11.87-.05 1.76-.59 2.47-.38.49-1.15 1.06-1.78.68-.53-.32-.72-1.07-.75-1.66-.06-1.16.15-2.29-.05-3.45-.08-.47-.66-.73-1.08-.62-.5.14-.7.61-.62 1.09h0ZM272.78 70.68c.11-.54.5-.98 1.08-.96.57.02.94.42 1.1.95.41 1.41-.36 2.96-1.01 4.17-.85 1.57-1.79 3.1-2.77 4.6-.12.18-.23.38-.37.56 0 0-.22.28-.23.25-.04-.18.44.09.41.12 0 0-.06-.1-.06-.1-.02-.21-.13-.44-.16-.65-.03-.22.08-.53-.16-.25-.18.21-.22.13 0 .19.41.09.82.23 1.22.37 1.76.62 3.46 1.49 5.38 1.44 1.13-.03 1.14-1.79 0-1.76-2.22.06-4.09-1.34-6.21-1.76-.54-.11-1.14-.12-1.58.28-.47.42-.49 1.04-.42 1.63.13 1.09.71 2.61 2.12 2.18.58-.18.95-.68 1.27-1.16.34-.51.67-1.02 1-1.54.65-1.03 1.27-2.07 1.86-3.13 1-1.81 2.09-4.14 1.25-6.21-.47-1.17-1.58-1.99-2.88-1.9-1.25.08-2.33 1.02-2.58 2.25-.1.47.14.95.62 1.08.44.12.99-.15 1.08-.62h0Z" style="fill:#fff"></path>
        <path d="M294.07 49.2c.23 1.39.56 2.76 1 4.1.23.69.49 1.37.78 2.03.25.58.49 1.17 1.13 1.4 1.34.48 2.47-.84 2.86-1.98.43-1.27.07-2.59.31-3.87h-1.7c1.19 4.16 1.84 8.45 1.92 12.78.02 1.02.12 2.15-.12 3.14-.15.63-.56 1.37-1.32 1.16-.78-.21-1.5-.94-2.02-1.52-.55-.61-1-1.33-1.31-2.08-.13-.31-.38-.72-.13-1.01.37-.44.9-.79 1.34-1.16.97-.83 1.94-1.66 2.91-2.49.36-.31.32-.93 0-1.25-.36-.36-.88-.31-1.25 0-1.01.87-2.03 1.73-3.04 2.6-.9.77-2.01 1.49-1.8 2.83.16 1.03.73 2.08 1.33 2.92.65.9 1.43 1.69 2.36 2.31.97.64 2.19.92 3.23.26 1.05-.67 1.44-1.87 1.55-3.05.11-1.21.05-2.46 0-3.68-.05-1.24-.14-2.48-.28-3.71-.32-2.88-.88-5.73-1.67-8.52-.23-.79-1.53-.89-1.7 0-.21 1.08 0 2.17-.16 3.25-.05.37-.16.78-.39 1.08-.09.12-.19.18-.29.28-.09.08-.34.04.05.09.12.02.07.12 0-.07-.9-2.02-1.52-4.13-1.87-6.31-.08-.47-.66-.73-1.08-.62-.5.14-.69.61-.62 1.08h0ZM304.97 60.11c.96.1 1.92.12 2.89.06.46-.03.9-.38.88-.88-.02-.45-.39-.91-.88-.88-.96.06-1.93.04-2.89-.06-.21-.02-.48.11-.62.26-.15.15-.27.4-.26.62 0 .23.08.46.26.62.18.17.38.23.62.26h0ZM304.85 63.79c1.65-.02 3.3-.2 4.92-.52.45-.09.75-.66.62-1.08-.16-.48-.6-.71-1.09-.62-.38.08-.77.14-1.16.2-.09.01-.18.03-.27.04-.29.04.17-.02-.12.02-.2.02-.39.05-.59.07-.77.08-1.54.12-2.31.13-.46 0-.9.4-.88.88.02.47.39.89.88.88h0ZM314.22 56.87c.1-.58.94-.1 1.24.1.53.35.95.85 1.27 1.4.69 1.2.75 2.56.28 3.85-.29.79-.74 1.54-1.17 2.26-.45.77-.92 1.52-1.41 2.27-.24.37-.49.75-.73 1.12-.08.12-.35.41-.37.56-.04.33.78.09.71.46 0 .05-.07.09-.08.13-.02.17-.07-.01 0 .05.04.03.35.02.42.02.48.05.95.14 1.43.2 1.01.14 2.03.32 3.05.43 1.03.11 2.16-.64 1.81-1.8-.33-1.08-2.03-.62-1.7.47-.13-.42.41-.38 0-.42-.28-.03-.56-.08-.84-.12-.62-.09-1.23-.18-1.85-.26-.55-.08-1.1-.16-1.65-.23-.58-.08-1.16-.09-1.67.23-.86.52-.94 1.92-.04 2.45 1.23.72 2.04-.88 2.57-1.69.62-.95 1.24-1.91 1.82-2.9.56-.95 1.12-1.92 1.46-2.97.59-1.81.29-3.86-.8-5.42-.63-.9-1.51-1.72-2.57-2.07-1.14-.38-2.66.11-2.89 1.42-.08.47.13.95.62 1.08.43.12 1-.14 1.08-.62h0ZM280.94 72.92c.23 1.39.56 2.76 1 4.1.23.69.49 1.36.78 2.03.25.58.49 1.17 1.13 1.4 1.34.48 2.47-.84 2.85-1.98.43-1.27.07-2.59.31-3.87h-1.7c1.19 4.16 1.84 8.45 1.92 12.78.02 1.02.12 2.15-.11 3.15-.15.63-.56 1.37-1.32 1.16-.78-.21-1.5-.94-2.02-1.52-.55-.61-1-1.33-1.31-2.08-.13-.31-.38-.72-.13-1.01.37-.44.9-.79 1.34-1.16.97-.83 1.94-1.66 2.91-2.49.36-.31.32-.93 0-1.25-.36-.36-.88-.31-1.25 0-1.01.87-2.03 1.73-3.04 2.6-.9.77-2.01 1.49-1.8 2.83.16 1.03.73 2.08 1.33 2.92.65.9 1.43 1.69 2.36 2.31.97.64 2.19.92 3.23.26 1.05-.67 1.44-1.87 1.55-3.05.11-1.21.06-2.46 0-3.68-.05-1.24-.14-2.48-.28-3.71-.32-2.88-.88-5.73-1.67-8.52-.23-.79-1.53-.89-1.7 0-.21 1.08 0 2.17-.16 3.25-.05.37-.16.78-.39 1.08-.09.12-.19.18-.29.28-.09.08-.34.04.05.1.12.02.07.12 0-.07-.9-2.02-1.52-4.14-1.87-6.31-.08-.47-.66-.73-1.08-.62-.5.14-.69.61-.62 1.08h0ZM198.64 113.78c2.1-1.76 3.85-3.92 5.14-6.34-.54-.23-1.07-.45-1.61-.68-1.07 2.67-.97 5.6-1.15 8.42-.19 3.01-.65 5.99-1.36 8.93-.26 1.1 1.44 1.57 1.7.47.71-2.97 1.18-6 1.4-9.05.2-2.78.06-5.65 1.12-8.29.37-.93-1.15-1.55-1.61-.68-1.23 2.3-2.87 4.31-4.87 5.98-.37.31-.32.93 0 1.25.36.36.88.31 1.25 0h0ZM210.52 107.66c-1.58-.35-2.38 1.16-2.79 2.42-.47 1.47-.83 2.98-1.07 4.5-.39 2.45-1.01 6.32 2.16 7.18 1.4.38 3.04.16 4.42-.19 1.38-.34 2.76-.93 3.91-1.78 1.22-.9 2.07-2.14 1.95-3.72-.11-1.45-.62-2.89-1.24-4.19-.33-.71-.73-1.39-1.17-2.03-.45-.64-.94-1.33-1.53-1.85-.7-.62-1.47-.79-2.38-.67-.94.12-1.88.27-2.83.4-.47.07-.73.67-.62 1.08.14.51.61.68 1.08.62.68-.1 1.36-.2 2.04-.29.5-.07 1.02-.23 1.44.11.81.66 1.45 1.71 1.96 2.61.54.96.95 1.98 1.23 3.04.27 1.04.44 2.09-.36 2.93-.72.76-1.75 1.29-2.72 1.65-1.09.41-2.23.65-3.39.68-.9.03-1.97-.02-2.35-.98-.36-.91-.19-2.04-.08-2.98.16-1.4.43-2.79.79-4.15.17-.65.35-1.32.59-1.96.07-.18.16-.38.27-.53 0-.01.15-.17.16-.18.19-.14.08-.03.04-.04 1.11.25 1.58-1.45.47-1.7h0ZM223.99 112.95c.62 2.95 1.84 5.77 3.57 8.23.28.39.77.57 1.21.32.38-.22.59-.82.32-1.21-1.66-2.35-2.81-4.99-3.4-7.8-.1-.47-.65-.74-1.09-.62-.48.13-.71.62-.62 1.08h0Z" style="fill:#fff"></path>
        <path d="M229.95 108.09c-1.29 2.84-2.67 5.65-4.24 8.35-1.37 2.34-2.98 4.62-5.23 6.19-.39.27-.57.77-.32 1.21.23.39.81.59 1.21.32 2.42-1.7 4.22-4.05 5.71-6.57 1.64-2.77 3.06-5.68 4.39-8.6.2-.43.12-.95-.32-1.21-.38-.22-1.01-.12-1.21.32h0ZM235.54 117.38c2-.39 4.03-.63 6.06-.73.48-.02.88-.39.88-.88 0-.46-.4-.9-.88-.88-2.19.1-4.38.36-6.53.79-.47.09-.73.65-.62 1.08.13.49.62.71 1.08.62h0ZM254.27 107.49c-.12 2.13-.68 4.23-1.65 6.14-.51 1.01.9 1.85 1.52.89.53-.82 1.72-.74 2.5-.38.58.27 1.1.67 1.58 1.09.44.39.78.67.64 1.29-.52 2.3-3.37 3.3-5.37 3.77-1.65.39-3.35.48-5.03.32-.47-.04-.88.44-.88.88 0 .51.41.84.88.88 1.87.17 3.76.03 5.58-.41 1.53-.37 3.06-.93 4.32-1.89 1.2-.91 2.32-2.32 2.31-3.91 0-.94-.53-1.6-1.2-2.19-.63-.55-1.3-1.09-2.07-1.43-1.65-.74-3.73-.55-4.78 1.07.51.3 1.02.59 1.52.89 1.11-2.2 1.74-4.57 1.89-7.03.07-1.13-1.7-1.13-1.76 0h0Z" style="fill:#fff"></path>
        <path d="M255.29 109.91c1.44-.13 2.89-.16 4.33-.08.46.03.9-.42.88-.88-.02-.5-.39-.85-.88-.88-1.44-.08-2.89-.06-4.33.08-.46.04-.9.38-.88.88.02.44.39.93.88.88h0ZM267.55 112.59c2.04 3.26 4.17 6.47 6.4 9.61.28.39.77.57 1.21.32.38-.22.59-.82.32-1.21-2.23-3.14-4.36-6.34-6.4-9.61-.6-.96-2.13-.08-1.52.89h0Z" style="fill:#fff"></path>
        <path d="M273.53 111.46c-.66.67-1.14 1.54-1.66 2.31-.57.84-1.14 1.69-1.71 2.53-1.14 1.69-2.28 3.37-3.42 5.06-.64.94.89 1.83 1.52.89 1.11-1.64 2.21-3.28 3.32-4.92.54-.8 1.07-1.59 1.61-2.39.5-.74.95-1.61 1.58-2.25.8-.81-.45-2.06-1.25-1.25h0ZM281.61 114.97c2.4.28 4.79.55 7.19.83.47.06.88-.44.88-.88 0-.52-.41-.83-.88-.88-2.4-.28-4.8-.55-7.19-.83-.47-.05-.88.45-.88.88 0 .52.41.83.88.88h0ZM283.76 119.9h7.93c1.13 0 1.14-1.76 0-1.76h-7.93c-1.13 0-1.14 1.76 0 1.76h0ZM301.94 113.43c0-.48 0-.97-.01-1.45 0-.23 0-.46 0-.68 0-.02-.01-.21 0-.19-.08.17-.25.26-.5.27.04.01.08.03.12.04.48.33.83.65 1.02 1.23.5 1.52-.31 2.99-1.16 4.21-.89 1.27-1.94 2.55-3.26 3.39-.16.1-.32.2-.49.29-.06.03-.41.14-.44.2-.04.06.04.02.12.09-.02.21-.04.42-.06.63 0 0 0 0 0 0 .2 0 .45-.1.66-.11.9-.03 1.77.21 2.64.38 2.17.41 4.38.52 6.58.29.47-.05.88-.37.88-.88 0-.44-.41-.93-.88-.88-1.28.13-2.57.16-3.85.07-1.26-.09-2.46-.37-3.7-.58-1.07-.19-2.75-.42-3.59.48-.46.5-.48 1.27-.02 1.77.47.52 1.16.62 1.81.41 1.07-.35 2.04-1.14 2.84-1.9.82-.79 1.53-1.69 2.18-2.61 1.31-1.84 2.22-4.12 1.18-6.3-.46-.97-1.66-2.2-2.85-1.92-.73.17-1 .87-1.01 1.55-.01.74.01 1.48.02 2.22 0 1.13 1.77 1.14 1.76 0h0ZM410.69 46.77c-.01 1.52-.02 3.03-.03 4.55 0 .7 1.01 1.25 1.51.62.69-.88 1.85-1.08 2.86-.64.99.42 2.12 1.52 2.16 2.66.02.56-.4.94-.83 1.22-.57.38-1.19.71-1.85.89-.54.15-1.12.2-1.65-.04-.39-.18-.82-.54-.86-.99-.04-.47-.38-.88-.88-.88-.44 0-.93.41-.88.88.13 1.46 1.27 2.6 2.71 2.85 1.59.28 3.26-.42 4.53-1.34.63-.46 1.18-1.04 1.39-1.82.21-.8.03-1.63-.32-2.37-.62-1.3-1.85-2.36-3.21-2.83-1.51-.52-3.4-.13-4.41 1.16.5.21 1 .42 1.51.62 0-1.52.02-3.04.03-4.55 0-1.14-1.76-1.14-1.76 0h0Z" style="fill:#fff"></path>
        <path d="M411.74 47.83h7.21c1.14 0 1.14-1.76 0-1.76h-7.21c-1.14 0-1.14 1.76 0 1.76h0ZM423.88 48.68c1.74 1.99 3.47 3.97 5.21 5.96.31.36.93.32 1.25 0 .36-.36.31-.89 0-1.25-1.74-1.99-3.47-3.97-5.21-5.96-.31-.36-.93-.32-1.25 0-.36.36-.31.89 0 1.25h0Z" style="fill:#fff"></path>
        <path d="M429.81 46.99c-1.81 2.59-3.97 4.93-6.39 6.97-.37.31-.32.93 0 1.25.36.36.88.31 1.25 0 2.54-2.13 4.77-4.6 6.67-7.32.27-.39.07-.98-.32-1.21-.44-.26-.93-.08-1.21.32h0ZM439.92 51.49c1.75-.45 3.6-.81 5.32-1.01.46-.05.9-.37.88-.88-.02-.43-.39-.94-.88-.88-1.95.23-3.89.58-5.79 1.07-.45.12-.76.64-.62 1.08.15.46.61.74 1.08.62h0ZM440.81 54.85c2-.46 4.02-.83 6.06-1.08.47-.06.88-.36.88-.88 0-.43-.41-.94-.88-.88-2.2.27-4.38.64-6.53 1.14-.46.11-.74.64-.62 1.08.13.48.62.72 1.09.62h0ZM461.06 48.18c-.17-.26-.29-.51-.35-.82-.05-.27.12-.73-.25-.32-.05.06-.1-.05-.11 0 0-.05.13.29.12.26.08.25.11.52.11.78 0 1.29-.7 2.48-1.4 3.51-.66.97-1.4 1.99-2.46 2.55-1.11.6-2.51.47-3.72.4.08.58.16 1.16.23 1.73 1.43-.43 2.94-.58 4.42-.35 1.44.22 2.72.78 4.01 1.44 1.28.66 2.59 1.31 4.04 1.49 1.22.15 3.29-.17 3.18-1.83-.03-.47-.38-.88-.88-.88-.45 0-.92.4-.88.88 0 .16.02.14.05-.06.05-.04.03-.02-.05.05.03 0-.08.04-.09.04-.23.1-.49.09-.77.09-.58-.01-1.14-.16-1.68-.36-1.21-.43-2.3-1.13-3.47-1.65-2.63-1.17-5.58-1.4-8.34-.56-.97.29-.75 1.67.23 1.73 1.48.08 2.97.11 4.35-.51 1.28-.58 2.19-1.7 2.99-2.81.85-1.17 1.66-2.49 1.9-3.93.22-1.27.1-3.35-1.46-3.72-.98-.24-1.78.46-1.87 1.42-.08.8.17 1.65.61 2.32.62.95 2.14.07 1.52-.89h0ZM416.7 86.58c1.89 2.18 4.05 4.11 6.41 5.77.39.27.98.07 1.21-.32.26-.44.07-.93-.32-1.21-2.23-1.57-4.26-3.43-6.06-5.5-.31-.36-.93-.32-1.25 0-.36.36-.31.89 0 1.25h0Z" style="fill:#fff"></path>
        <path d="M423.25 83.77c-1.91 2.39-4.02 4.62-6.29 6.67-.35.32-.32.92 0 1.25.35.35.89.32 1.25 0 2.27-2.05 4.38-4.28 6.29-6.67.3-.37.36-.88 0-1.25-.31-.31-.95-.37-1.25 0h0ZM428.82 88.02c1.59-.24 3.15-.62 4.68-1.13.44-.15.77-.61.62-1.08-.14-.43-.62-.78-1.08-.62-1.52.52-3.09.9-4.68 1.13-.46.07-.75.67-.62 1.09.16.5.59.69 1.08.62h0ZM427.02 90.92c3.58-.56 7.12-1.3 10.62-2.23 1.09-.29.63-1.99-.47-1.7-3.5.93-7.04 1.67-10.62 2.23-.47.07-.73.66-.62 1.08.14.5.61.69 1.09.62h0ZM447.72 79.25c-.06-.16-.08-.38-.15-.52 0 0 0-.1 0-.1.08.05-.34.14-.34.13-.08.07-.05-.16-.03.01 0 0 .11.13.11.14.11.15.21.32.28.49.26.55.34 1.15.32 1.75-.04 1.39-.73 2.67-1.48 3.81-.36.55-.75 1.06-1.23 1.51-.22.21-.45.38-.7.53-.09.06-.24.1-.32.17 0 0-.12.03-.12.04 0 .02.25.22.26.24.12.17-.11.14.18.09.31-.05.66-.02.96.02.76.09 1.5.35 2.23.58 1.62.51 3.41.98 5.05.3.44-.18.75-.59.62-1.09-.12-.42-.64-.8-1.09-.62-1.98.81-4.02-.43-5.96-.82-1-.2-2.3-.37-3.15.34-.84.71-.81 2.2.32 2.61.97.35 1.98-.33 2.7-.93.74-.62 1.33-1.42 1.85-2.22 1.13-1.75 1.91-3.76 1.53-5.87-.18-.99-.78-2.5-1.87-2.79-.63-.17-1.28.12-1.63.66-.4.62-.28 1.34-.06 2 .16.45.6.75 1.08.62.44-.12.77-.63.62-1.08h0ZM439.75 94.12c5.41.11 10.82-.09 16.21-.58.47-.04.88-.37.88-.88 0-.44-.41-.93-.88-.88-5.39.5-10.8.69-16.21.58-1.14-.02-1.14 1.74 0 1.76h0ZM444.45 97.38c.08 1.35 0 2.7-.29 4.03-.12.59.41 1.35 1.08 1.08.95-.37 1.87-1.26 2.95-1.06.96.19 1.59 1.06 1.48 2.03-.11.98-1.02 1.61-1.89 1.88-.62.19-1.27.26-1.91.3-.32.02-.64.04-.95.04.03 0-.28-.03-.29-.03.01 0-.07.4.04.11.17-.45-.19-.97-.62-1.08-.5-.14-.91.17-1.08.62-.27.71.14 1.52.77 1.88.66.37 1.49.27 2.21.23 1.45-.09 2.9-.35 4.06-1.28 1.09-.86 1.6-2.18 1.37-3.55-.22-1.32-1.21-2.38-2.48-2.78-.66-.21-1.41-.22-2.08-.01-.74.22-1.34.73-2.05 1.01.36.36.72.72 1.08 1.08.31-1.48.44-2.99.35-4.5-.07-1.13-1.83-1.14-1.76 0h0Z" style="fill:#fff"></path>
        <path d="M445.51,97.98c.75-.09,1.5-.18,2.25-.27.24-.03.45-.08.62-.26.15-.15.27-.4.26-.62-.01-.23-.09-.46-.26-.62-.16-.15-.4-.29-.62-.26-.75.09-1.5.18-2.25.27-.24.03-.44.08-.62.26-.15.15-.27.4-.26.62.01.23.09.46.26.62.16.15.4.29.62.26h0Z" style="fill:#fff"></path>
      </g>
    </g>
  </g>
</svg>
